<?xml version="1.0" standalone="no"?>
<!DOCTYPE svg PUBLIC "-//W3C//DTD SVG 1.1//EN" "http://www.w3.org/Graphics/SVG/1.1/DTD/svg11.dtd" >
<svg xmlns="http://www.w3.org/2000/svg">
<metadata></metadata>
<defs>
<font id="adobe_arabicregular" horiz-adv-x="722" >
<font-face units-per-em="2048" ascent="1368" descent="-680" />
<missing-glyph horiz-adv-x="400" />
<glyph unicode="&#xfb01;" horiz-adv-x="811" d="M35 594l42 44h73v36q0 62 20 120q39 101 123 166q94 73 189 80q109 -4 162 -71q19 -28 7 -59q-13 -26 -35 -36q-27 -18 -45 1q-75 94 -157 94q-60 0 -92 -57q-44 -67 -44 -222v-52h123q188 0 281 19v-510q0 -68 16 -84.5t87 -23.5v-39h-323v39q61 7 75.5 24t14.5 84v348 q0 54 -12 68t-67 14h-195v-430q0 -67 17.5 -84t86.5 -24v-39h-337v39q70 8 87.5 25t17.5 83v430h-108z" />
<glyph unicode="&#xfb02;" horiz-adv-x="808" d="M38 596l41 42h71v26q0 79 20 136q38 98 123 166q81 63 176 74q75 0 128 -33q23 5 72 30l13 -9v-881q0 -67 17 -83.5t89 -24.5v-39h-328v39q62 7 77 24t15 84v756q-19 31 -56.5 50.5t-75.5 19.5q-60 0 -97 -50q-45 -60 -45 -201v-84h172q6 -9 1.5 -31.5t-17.5 -29.5h-156 v-431q0 -67 15.5 -83.5t83.5 -23.5v-39h-332v39q72 8 88.5 24.5t16.5 82.5v431h-106z" />
<glyph horiz-adv-x="2048" />
<glyph horiz-adv-x="2048" />
<glyph unicode="&#xd;" horiz-adv-x="2048" />
<glyph unicode=" "  horiz-adv-x="400" />
<glyph unicode="&#x09;" horiz-adv-x="400" />
<glyph unicode="&#xa0;" horiz-adv-x="400" />
<glyph unicode="!" horiz-adv-x="417" d="M119 926q0 47 86 47h2q86 0 86 -47q0 -13 -12 -116q-17 -141 -48 -516q-5 -8 -27 -8t-27 8q-28 369 -48 516q-12 103 -12 116zM121 73q0 38 24.5 64t61.5 26q39 0 64 -25.5t25 -64.5q0 -40 -25 -65t-64 -25h-2q-36 0 -60 25t-24 65z" />
<glyph unicode="&#x22;" horiz-adv-x="492" d="M61 996l124 41l10 -6q-18 -159 -42 -333l-44 -19q-31 260 -48 317zM293 996l125 41l9 -6q-1 -10 -9 -78t-17.5 -141.5t-15.5 -113.5l-44 -19q-39 290 -48 317z" />
<glyph unicode="#" d="M34 288l17 92h150l44 194h-140l14 92h146l53 220h58l-51 -220h160l50 220h59l-49 -220h129l-13 -92h-138l-44 -194h128l-14 -92h-136l-58 -250h-58l57 250h-161l-56 -250h-62l60 250h-145zM262 380h158l43 194h-159z" />
<glyph unicode="$" d="M68 271l44 12q65 -200 232 -219v342l-51 22q-194 79 -194 227q0 94 64.5 160.5t180.5 78.5v117h54v-112q70 0 132 -19q24 -7 53 -12q3 -19 14 -79.5t18 -108.5l-43 -9q-21 76 -57 120.5t-117 56.5v-315l43 -16q95 -32 154.5 -92.5t59.5 -152.5q0 -104 -68.5 -173 t-188.5 -83v-127h-54v124q-140 0 -235 61q-14 42 -41 197zM210 705q0 -101 134 -153v297q-66 -7 -100 -48.5t-34 -95.5zM398 66q64 7 101 50t37 104q0 53 -24.5 92.5t-96.5 69.5l-17 7v-323z" />
<glyph unicode="%" horiz-adv-x="1133" d="M73 661q0 63 21.5 121t73 100.5t123.5 42.5h2q71 0 122.5 -42.5t73 -100.5t21.5 -121q0 -62 -22 -120t-73.5 -100.5t-123.5 -42.5t-123.5 42.5t-73 100.5t-21.5 120zM188 663q0 -32 4.5 -65.5t15 -70.5t32.5 -60t53 -23t53 23t32 60t14 69.5t4 64.5q0 34 -4 66.5 t-13.5 70t-31.5 60t-54 22.5h-2q-30 0 -52 -23t-32 -59t-14.5 -69.5t-4.5 -65.5zM239 -12l603 962l49 -35l-606 -963zM629 245q0 63 22 121.5t74 101t124 42.5h2q71 0 122 -42.5t73 -100.5t22 -121q0 -62 -22 -120t-73.5 -100.5t-123.5 -42.5t-124 42.5t-74 100t-22 119.5z M744 246q0 -32 4.5 -65.5t15.5 -70t33.5 -59.5t53.5 -23t52.5 23.5t31.5 60.5t14 69.5t4 64.5q0 33 -4 66t-14 70t-32.5 60t-53.5 23h-1q-30 0 -52 -22.5t-32.5 -59t-15 -70t-4.5 -67.5z" />
<glyph unicode="&#x26;" horiz-adv-x="1072" d="M80 248q0 45 13 81t43.5 68t59 54t81.5 58q17 11 25 17q-107 97 -107 204q0 97 74.5 165.5t176.5 68.5q95 0 161 -58t66 -146q0 -76 -63 -128q-34 -29 -121 -87q150 -123 251 -223q47 68 89 163q21 49 3.5 69t-95.5 30l1 42h346v-42q-73 -8 -104 -29t-73 -80 q-23 -31 -66.5 -97t-62.5 -94q60 -55 137 -144.5t110 -151.5l-8 -14q-65 4 -122 23t-73 35q-1 1 -51 54.5t-79 83.5q-79 -101 -154 -145.5t-158 -44.5q-136 0 -218 81.5t-82 186.5zM217 294q0 -97 63 -152.5t144 -55.5h1q66 0 129 37t101 88q-133 141 -314 281 q-124 -85 -124 -198zM312 768q0 -54 32 -97t105 -97q106 76 106 185q0 64 -35 109t-87 45h-2q-52 0 -86 -41.5t-33 -103.5z" />
<glyph unicode="'" horiz-adv-x="262" d="M60 996l125 41l10 -6q-18 -159 -42 -333l-44 -19q-32 268 -49 317z" />
<glyph unicode="(" horiz-adv-x="517" d="M108 395v1q0 204 78 368.5t236 271.5l30 -35q-110 -92 -171 -254t-61 -352t61.5 -353t170.5 -255l-30 -33q-158 104 -236 270t-78 371z" />
<glyph unicode=")" horiz-adv-x="517" d="M66 -213q111 93 172 255t61 353q0 189 -63 353.5t-170 253.5l29 34q160 -107 238 -271.5t78 -369.5v-2q0 -204 -77.5 -368t-238.5 -271z" />
<glyph unicode="*" horiz-adv-x="597" d="M57 865l22 31l180 -118l86 195l37 -9l-40 -205l198 -4v-38l-195 -37l57 -202l-35 -15l-105 191l-180 -112l-22 33l151 139z" />
<glyph unicode="+" horiz-adv-x="846" d="M76 332v77h304v300h89v-300h303v-77h-303v-332h-89v332h-304z" />
<glyph unicode="," horiz-adv-x="344" d="M63 -131q118 47 118 125q0 38 -26.5 64.5t-70.5 36.5q-6 0 -12 10.5t-6 28.5q0 27 22.5 45t52.5 18h2q47 0 94 -46t47 -117q0 -81 -60 -133.5t-145 -76.5z" />
<glyph unicode="-" horiz-adv-x="535" d="M83 287l20 84h350l-22 -84h-348z" />
<glyph unicode="." horiz-adv-x="344" d="M84 73q0 37 25 62t63 25t62.5 -25t24.5 -62q0 -41 -24 -65.5t-63 -24.5h-2q-38 0 -62 24.5t-24 65.5z" />
<glyph unicode="/" horiz-adv-x="498" d="M36 -64l328 1037h88l-330 -1037h-86z" />
<glyph unicode="0" d="M52 453q0 67 10 131t33.5 126.5t58.5 109.5t88 76t119 29h2q81 0 142 -41t95.5 -110.5t51.5 -150t17 -169.5q0 -84 -17 -163.5t-51.5 -150.5t-96.5 -114t-143 -43q-82 0 -143.5 40.5t-96.5 109t-52 149t-17 171.5zM197 456q0 -81 8.5 -152t26.5 -133.5t51.5 -99.5 t79.5 -37t79 36t50 99.5t24.5 133.5t7.5 153t-8 153t-25.5 132t-50.5 97.5t-79 35.5h-1q-47 0 -80 -36t-50.5 -98.5t-25 -132t-7.5 -151.5z" />
<glyph unicode="1" d="M157 814v35q123 20 280 76v-753q0 -44 3 -64.5t19 -36t42 -20.5t79 -9v-42h-418v42q53 4 78.5 8.5t41 20.5t18.5 36.5t3 64.5v552q0 57 -10.5 70.5t-57.5 16.5z" />
<glyph unicode="2" d="M48 0v35q178 174 240 246q86 100 135 182t49 166q0 90 -45.5 140.5t-126.5 50.5q-68 0 -116 -39t-89 -99l-35 32l89 124q85 87 203 87q106 0 180.5 -68.5t74.5 -180.5q0 -91 -43.5 -165.5t-154.5 -187.5l-205 -206h271q65 0 89 15t58 84l44 -14q-11 -35 -54 -202h-564z " />
<glyph unicode="3" d="M68 89q3 28 37 51q18 15 38 0q90 -80 188 -80q77 0 124.5 57t47.5 161q0 92 -57.5 139.5t-129.5 47.5q-44 0 -93 -15l-9 44q112 35 172 82t60 120q0 65 -39.5 100.5t-100.5 35.5q-101 0 -179 -117l-32 31l67 94q76 85 192 85h1q101 0 163 -54.5t62 -139.5q0 -58 -44 -102 q-42 -37 -102 -77v-3q98 -17 153 -78.5t54 -144.5q0 -58 -22 -109.5t-58.5 -87.5t-79.5 -65t-88 -46t-82 -26t-63 -9q-48 0 -92 16.5t-63 34.5q-28 23 -25 55z" />
<glyph unicode="4" d="M29 258v46q250 358 450 617h67v-590h143v-73h-143v-99q0 -74 19 -92t108 -26v-41h-395v41q53 4 78.5 9t40.5 19.5t17.5 32t2.5 58.5v98h-388zM125 331h292v421h-3q-142 -187 -289 -421z" />
<glyph unicode="5" d="M71 86q0 27 34 54q20 15 41 -2q91 -80 189 -80q86 0 132.5 62t46.5 148q0 100 -62 160t-178 60q-64 0 -156 -29l60 448h435l9 -11l-41 -105h-354l-39 -262q122 46 173 46q135 0 212 -74t77 -172q0 -135 -136 -245q-61 -47 -131.5 -74t-130.5 -27q-46 0 -89.5 16t-64.5 35 q-31 29 -27 52z" />
<glyph unicode="6" d="M52 348q0 92 25.5 173t65 139t92.5 105t103.5 75.5t102.5 46.5q92 31 197 47l10 -48q-83 -15 -161 -51q-221 -102 -273 -334l99 48q57 25 92 25q121 0 196.5 -77t75.5 -193q0 -133 -89 -227t-222 -94q-136 0 -225 100t-89 265zM198 351q0 -135 53.5 -225.5t138.5 -90.5 q40 0 70.5 20t47 53t24 69t7.5 74q0 98 -51.5 167.5t-143.5 69.5h-2q-61 0 -135 -36q-9 -35 -9 -101z" />
<glyph unicode="7" d="M68 682q4 24 30 225h579l12 -17q-39 -82 -191 -399.5t-234 -491.5l-118 -16l-11 17q241 367 448 791h-324q-73 0 -95.5 -17.5t-51.5 -91.5h-44z" />
<glyph unicode="8" d="M66 229q0 74 67 137q37 36 131 90q-162 89 -162 227q0 97 77 169.5t195 72.5h2q106 0 176 -63t70 -154q0 -68 -44 -117q-30 -32 -115 -88q45 -25 76 -47.5t61 -53.5t45 -69.5t15 -84.5q0 -62 -28.5 -113.5t-74 -84t-98 -50t-102.5 -17.5q-128 0 -209.5 66t-81.5 180z M194 239q0 -97 53 -152t126 -55h1q67 0 111.5 47.5t44.5 127.5q0 39 -16 71.5t-50.5 60.5t-67.5 47.5t-87 46.5q-52 -33 -83.5 -84.5t-31.5 -109.5zM224 730q0 -39 13.5 -69t44.5 -55t58.5 -41.5t77.5 -40.5q86 68 86 175q0 87 -44.5 131.5t-101.5 44.5h-1 q-60 0 -96.5 -43.5t-36.5 -101.5z" />
<glyph unicode="9" d="M54 613q0 73 35.5 143t108.5 119.5t166 49.5h2q138 0 219 -105.5t81 -260.5q0 -194 -98.5 -333.5t-257.5 -202.5q-53 -20 -117 -32.5t-100 -13.5l-9 45q162 26 276 132.5t150 265.5l-96 -51q-45 -24 -89 -24q-120 0 -195.5 76t-75.5 192zM192 666q0 -98 54.5 -166.5 t143.5 -68.5q71 0 126 38q5 43 5 98q0 54 -8.5 104.5t-27 98t-55 76t-86.5 28.5h-2q-73 0 -111.5 -65.5t-38.5 -142.5z" />
<glyph unicode=":" horiz-adv-x="344" d="M86 71q0 38 24.5 63.5t62.5 25.5t63 -25.5t25 -63.5q0 -40 -24.5 -64t-63.5 -24h-1q-38 0 -62 24t-24 64zM86 511q0 40 24 64.5t62 24.5h1q38 0 62 -24.5t24 -64.5q0 -39 -24.5 -64t-62.5 -25t-62 25t-24 64z" />
<glyph unicode=";" horiz-adv-x="344" d="M66 -131q116 47 116 127q0 37 -27 63t-69 36q-6 0 -13 10.5t-7 28.5q0 27 22.5 45t52.5 18h2q47 0 94 -46t47 -117q0 -80 -60 -133t-144 -77zM84 511q0 39 25 64t63 25h1q38 0 62 -24.5t24 -64.5q0 -39 -24.5 -64t-62.5 -25t-63 25t-25 64z" />
<glyph unicode="&#x3c;" horiz-adv-x="808" d="M87 332v74l635 332v-85l-544 -283v-3l544 -283v-84z" />
<glyph unicode="=" horiz-adv-x="846" d="M76 200v75h696v-75h-696zM76 465v77h696v-77h-696z" />
<glyph unicode="&#x3e;" horiz-adv-x="808" d="M87 0v84l545 283v3l-545 283v85l635 -332v-74z" />
<glyph unicode="?" horiz-adv-x="571" d="M83 859q0 27 32 57q32 27 75 42t68 15h1q95 0 170 -73t75 -164q0 -40 -17 -71t-57 -63q-7 -6 -44 -31.5t-58 -42.5t-42 -44t-21 -51q0 -33 15 -57.5t49 -55.5l-26 -35q-56 21 -113 75.5t-57 115.5q0 40 28.5 78t99.5 90q90 62 116 90q33 35 34 64q0 36 -22.5 56t-62.5 20 q-42 0 -81.5 -21.5t-64 -43t-30.5 -21.5q-19 0 -43 22.5t-24 48.5zM191 73q0 37 25 63t61 26q37 0 62 -26t25 -63q0 -40 -25 -65t-62 -25h-2q-35 0 -59.5 25t-24.5 65z" />
<glyph unicode="@" horiz-adv-x="1132" d="M77 304q1 124 49.5 228.5t129 172t182.5 104.5t212 37q194 0 308 -109t114 -267q0 -150 -102.5 -257t-252.5 -107q-56 0 -68.5 25.5t-3.5 81.5l18 81l-3 2q-42 -61 -123.5 -125.5t-131.5 -64.5q-30 0 -51 33t-20 93q0 68 29 142.5t90 130.5q114 107 243 110q19 0 76 -12 q35 -7 51 -7q-38 -153 -71 -329q-11 -57 -5.5 -77.5t32.5 -19.5q84 2 151.5 82t67.5 218q0 149 -99.5 234t-256.5 85q-206 0 -336 -134t-130 -339q1 -60 14 -115.5t44 -106.5t76 -88.5t114 -60t154 -22.5q61 0 131 17.5t104 36.5l16 -43q-134 -78 -299 -78 q-90 0 -170.5 28.5t-144 82.5t-101 141t-37.5 196zM452 271q0 -69 30 -69q24 0 78.5 45t113.5 129q16 48 40 160q-38 18 -80 18h-2q-57 0 -96 -44q-33 -37 -58 -105.5t-26 -133.5z" />
<glyph unicode="A" horiz-adv-x="1053" d="M31 0v42q54 8 78 19t45 40t48 96l314 763l52 13q202 -544 291 -776q36 -96 64 -121.5t102 -33.5v-42h-378v42q70 10 85.5 25.5t0.5 59.5q-37 101 -80 215h-321q-36 -96 -64 -182q-14 -40 -14 -63q0 -16 6 -25q16 -21 101 -30v-42h-330zM357 408h274l-131 364h-3 q-31 -77 -140 -364z" />
<glyph unicode="B" horiz-adv-x="896" d="M54 0v42q35 2 55 4.5t37.5 9t25 14t13 25t6.5 36.5t1 53v581q0 35 -0.5 53.5t-6 36.5t-11.5 25t-22.5 14t-34 9t-50.5 4v44h396q154 0 229 -51q39 -26 61.5 -71t22.5 -96q0 -49 -19.5 -89t-52.5 -64.5t-66 -39.5t-70 -24v-5q270 -35 270 -231q0 -145 -142 -222 q-109 -58 -298 -58h-344zM331 188q0 -81 26 -109q25 -27 92 -27h5q96 2 159.5 54.5t63.5 158.5q0 214 -284 214h-62v-291zM331 530h65q119 0 174.5 46t55.5 138q0 84 -49 136t-146 52q-60 0 -83 -18q-17 -12 -17 -71v-283z" />
<glyph unicode="C" horiz-adv-x="1027" d="M64 463q0 229 166.5 369.5t429.5 140.5q57 0 114 -8.5t107.5 -20.5t56.5 -13q29 -198 32 -229l-45 -10q-30 119 -104.5 172.5t-199.5 53.5q-93 0 -168.5 -35.5t-123 -95t-73.5 -135t-26 -158.5q0 -206 113 -333t291 -127q111 0 183.5 57t135.5 177l43 -17 q-16 -57 -42.5 -128t-44.5 -104q-185 -42 -287 -42q-139 0 -249 43t-175.5 114t-99.5 155t-34 174z" />
<glyph unicode="D" horiz-adv-x="1130" d="M50 0v42q53 4 77 8t41 20.5t20 40t3 74.5v580q0 41 -3 63t-8.5 38t-22.5 23t-35.5 10.5t-58.5 6.5v45h442q295 0 430 -125q128 -123 128 -315q0 -252 -188 -390q-168 -121 -453 -121h-372zM331 198q0 -84 37 -113.5t124 -29.5q101 0 181.5 35t130 95.5t75.5 137.5t26 165 q0 114 -43.5 203.5t-125.5 140.5q-102 68 -266 68q-88 0 -120 -20q-19 -14 -19 -85v-597z" />
<glyph unicode="E" horiz-adv-x="859" d="M44 0v42q101 7 124.5 30.5t23.5 113.5v573q0 36 -1 57t-7 38.5t-12 25t-24.5 14t-34.5 8.5t-50 5v44h678q5 -91 14 -217l-46 -6q-17 72 -49 127q-16 24 -52 33t-114 9h-111q-36 0 -44 -7.5t-8 -40.5v-328h137q54 0 80 2.5t44.5 16.5t24.5 32.5t14 59.5h45v-287h-45 q-7 36 -13 53.5t-15 32.5t-28 20t-41.5 7t-65.5 2h-137v-269q0 -53 7.5 -80t28.5 -40q29 -17 153 -17q83 0 123 10t65 38q42 50 76 141l46 -6q-26 -143 -52 -237h-734z" />
<glyph unicode="F" horiz-adv-x="803" d="M60 0v42q40 3 60 7t37 11.5t23 25t9 40.5t3 65v571q0 35 -1 55.5t-7 37.5t-12.5 25t-23.5 14.5t-34 8.5t-50 4v44h670q3 -87 16 -220l-45 -7q-19 85 -45 119q-20 31 -54 42.5t-115 11.5h-109q-35 0 -43 -7.5t-8 -40.5v-342h150q36 0 58.5 1t40.5 6.5t27 11t17 20.5t12 29 t9 41h44v-288h-45q-10 57 -21 78t-41 30.5t-101 9.5h-150v-255q0 -35 1 -55.5t7.5 -38.5t14.5 -26t27.5 -14.5t40.5 -9t59 -5.5v-42h-421z" />
<glyph unicode="G" horiz-adv-x="1101" d="M66 469q0 122 49 220t131.5 159t187 93t220.5 32q37 0 75 -3t74.5 -9.5t59.5 -11t56 -12t37 -8.5q9 -114 23 -236l-44 -10q-17 88 -62 141.5t-103.5 74t-138.5 20.5q-175 0 -287 -117t-112 -314q0 -65 15.5 -128.5t49 -123.5t81.5 -105t119 -72.5t156 -27.5q77 0 129 26 q26 14 38 34t12 60v120q0 30 -1 46.5t-7.5 32.5t-15 22.5t-29 13t-43.5 9.5t-65 6v42h395v-42q-66 -10 -80 -26.5t-14 -83.5v-122q0 -94 10 -135q-10 -2 -49 -11.5t-57 -13.5t-55.5 -11.5t-63 -11t-59.5 -6.5t-64 -3q-254 0 -411 136.5t-157 355.5z" />
<glyph unicode="H" horiz-adv-x="1174" d="M57 907v44h403v-44q-63 -5 -86.5 -14.5t-32.5 -35.5t-9 -91v-230h513v230q0 33 -1 52.5t-7 36.5t-12.5 24.5t-24 14t-35 8.5t-51.5 5v44h405v-44q-52 -4 -74.5 -8t-39 -20t-19.5 -39.5t-3 -73.5v-582q0 -50 3 -73.5t19.5 -39.5t39 -20.5t74.5 -8.5v-42h-415v42 q36 3 55.5 5t38 8.5t26 14.5t13.5 25t7 36t1 53v286h-513v-286q0 -50 3 -73.5t19.5 -39.5t39 -20.5t74.5 -8.5v-42h-407v42q50 4 72 8.5t38 20.5t18.5 39.5t2.5 73.5v582q0 41 -3 62t-8.5 37.5t-23 23.5t-38 11t-62.5 7z" />
<glyph unicode="I" horiz-adv-x="523" d="M57 0v42q51 4 73.5 8t39 20.5t19.5 40.5t3 75v577q0 51 -3 75.5t-19.5 40.5t-39 20.5t-73.5 7.5v44h408v-44q-34 -2 -52.5 -4.5t-36 -8.5t-24.5 -14t-13 -25t-7 -37.5t-1 -54.5v-577q0 -51 3 -75t19.5 -40.5t39 -20.5t72.5 -8v-42h-408z" />
<glyph unicode="J" horiz-adv-x="505" d="M41 -195q118 55 143 191q16 91 16 282v485q0 66 -9.5 93t-34.5 37t-90 14v44h400v-44q-62 -4 -86 -14t-33 -37t-9 -93v-526q0 -146 -29 -233.5t-107 -156.5q-69 -64 -142 -86z" />
<glyph unicode="K" horiz-adv-x="1028" d="M60 907v44h397v-44q-88 -6 -108.5 -29t-20.5 -121v-252q41 9 109 70q175 166 245 252q31 35 31 51q0 2 -1 4q-5 16 -57 23l-32 2v44h369v-44q-85 -8 -130.5 -27.5t-115.5 -79.5q-48 -43 -261 -249q159 -196 353 -402q56 -60 91 -80t89 -27v-42h-243q-160 181 -366 421 q-25 30 -42.5 38.5t-38.5 5.5v-273q0 -52 3.5 -77t20 -42.5t40.5 -22t76 -8.5v-42h-404v42q47 4 69 8.5t37.5 22t18.5 42.5t3 77v565q0 36 -1 57t-7 39t-13 26t-24.5 14.5t-35.5 9t-51 4.5z" />
<glyph unicode="L" horiz-adv-x="813" d="M51 0v42q53 4 77 8.5t41 21t20 41t3 76.5v574q0 52 -2.5 75.5t-18.5 40.5t-39 21t-74 7v44h405v-44q-50 -3 -71.5 -7t-38 -20.5t-19.5 -41t-3 -75.5v-569q0 -61 7 -86.5t28 -36.5q34 -19 139 -19q64 0 103 10t63 37q45 45 81 146l45 -9q-34 -170 -56 -236h-690z" />
<glyph unicode="M" horiz-adv-x="1347" d="M38 0v44q64 6 91 24.5t36 62.5q16 103 29 271l22 294q3 39 4 63t-0.5 48t-3.5 36t-10 24.5t-16 17.5t-25.5 10t-33.5 7t-45 5v44h255l339 -719l344 719h262v-44q-26 -2 -40 -4t-30.5 -4t-24 -6.5t-17 -9.5t-12.5 -14t-7 -19t-4.5 -27t-0.5 -33.5t1 -43.5l14 -528 q1 -45 2.5 -66.5t7.5 -44.5t12.5 -31t24 -17t37 -11.5t55.5 -5.5v-42h-404v42q34 3 52 6t34.5 11.5t22.5 17t11 30.5q6 23 6 45v17q0 20 -1 49l-5 587h-6l-366 -796h-30l-337 776h-4l-22 -411q-5 -94 -5 -164q0 -43 2 -77q2 -49 29.5 -65t107.5 -24v-44h-351z" />
<glyph unicode="N" horiz-adv-x="1133" d="M29 907v44h230l637 -722h4v341q0 139 -10 244q-5 51 -36.5 70t-112.5 23v44h357v-44q-65 -3 -93 -21t-33 -67q-9 -85 -9 -249v-585h-48l-657 762h-2l-1 -357q0 -141 10 -246q5 -56 35 -76t109 -26v-42h-358v42q67 5 96.5 25t34.5 73q12 92 12 250v314q0 77 -5.5 99.5 t-26.5 50.5q-23 27 -51.5 38t-81.5 15z" />
<glyph unicode="O" horiz-adv-x="1158" d="M66 466q0 134 62 248.5t183.5 186.5t278.5 72h1q98 0 189 -35t160 -97t110.5 -154t41.5 -199q0 -154 -71.5 -271.5t-189 -178.5t-260.5 -61q-139 0 -254.5 63t-183 175.5t-67.5 250.5zM230 504q0 -202 106.5 -337t267.5 -135q64 0 121 26t102.5 76t72 131t26.5 184 q0 112 -29.5 202.5t-80.5 148t-116.5 88t-140.5 30.5h-1q-64 0 -122 -26.5t-104.5 -76t-74 -130.5t-27.5 -181z" />
<glyph unicode="P" horiz-adv-x="856" d="M60 0v42q49 4 71.5 9t38.5 21.5t19 40.5t3 73v577q0 35 -1 56t-7 38t-12 24.5t-23 13.5t-33 8t-48 4v44h384q170 0 253 -61q98 -72 98 -208q0 -69 -24.5 -124.5t-67 -91t-93 -56.5t-107.5 -28q-22 -3 -46 -3q-12 0 -24 1l-112 28v-223q0 -34 1 -53.5t7.5 -36.5 t14.5 -24.5t27.5 -14.5t40 -9t58.5 -5v-42h-418zM329 459q49 -18 107 -18q38 0 72.5 11.5t67 36.5t52 73.5t19.5 114.5q0 113 -62 169t-158 56q-64 0 -82 -18q-16 -16 -16 -67v-358z" />
<glyph unicode="Q" horiz-adv-x="1154" d="M66 460q0 138 62 253.5t184.5 187.5t283.5 72q132 0 244.5 -60t182 -173t69.5 -256q0 -182 -102 -309.5t-249 -171.5q213 -139 372 -210l-12 -33q-19 -1 -38 -1q-92 0 -164 21q-114 31 -353 200q-77 3 -165.5 34t-156.5 92q-73 66 -115.5 158t-42.5 196zM230 500 q0 -182 86.5 -308.5t223.5 -153.5l108 33q22 -12 42 -27q98 27 168 130t70 269q0 220 -105 347.5t-265 127.5q-136 0 -232 -111.5t-96 -306.5z" />
<glyph unicode="R" horiz-adv-x="945" d="M57 0v42q65 5 90.5 15.5t35 37t9.5 91.5v580q0 50 -3 74t-19 40t-37 20t-70 7v44h383q166 0 243 -51q99 -62 99 -192q0 -169 -189 -248q40 -75 132 -211q74 -106 121 -154q47 -53 105 -67l-7 -41q-26 0 -53 3q-91 5 -145.5 33.5t-106.5 100.5q-30 42 -82.5 128t-62.5 102 q-21 33 -48 46.5t-82 13.5h-42v-228q0 -65 9.5 -91.5t34.5 -37t90 -15.5v-42h-405zM328 463h67q110 0 163 42q80 62 80 180q0 110 -61 162.5t-153 52.5q-61 0 -80 -14q-16 -13 -16 -63v-360z" />
<glyph unicode="S" horiz-adv-x="718" d="M61 265l45 13q11 -40 29 -78.5t47.5 -78.5t75 -64.5t99.5 -24.5q81 0 127 46.5t46 125.5q0 73 -46.5 118t-147.5 98q-35 17 -55.5 28.5t-54 32.5t-54 42t-42 48.5t-31.5 61.5t-10 73q0 113 85.5 190t227.5 77q85 0 194 -35q12 -108 26 -208l-45 -8q-9 32 -18.5 57.5 t-26 53.5t-36.5 46.5t-50.5 30.5t-66.5 12q-79 0 -122 -47t-43 -112q0 -72 45 -117.5t146 -94.5q48 -24 77 -39.5t68 -43.5t60.5 -55t37.5 -67.5t16 -86.5q0 -120 -94 -201t-244 -81q-80 0 -150 24q-23 7 -74 31q-18 53 -41 233z" />
<glyph unicode="T" horiz-adv-x="944" d="M41 715q14 188 17 273h32q15 -26 31 -31.5t54 -5.5h606q30 0 45 7.5t33 29.5h32q0 -79 15 -268l-45 -5q-22 98 -51 137q-20 27 -51 36t-114 9h-102v-713q0 -48 3.5 -70.5t21 -40t45.5 -22.5t85 -9v-42h-443v42q102 7 126 30t24 112v713h-87q-93 0 -129 -10t-52 -35 q-21 -27 -51 -137h-45z" />
<glyph unicode="U" horiz-adv-x="1119" d="M48 907v44h401v-44q-89 -5 -109.5 -28t-20.5 -124v-319q0 -181 73 -277t210 -96q285 0 285 413v112q0 167 -12 236q-6 42 -37 60t-108 23v44h361v-44q-66 -4 -96.5 -23.5t-34.5 -63.5q-9 -92 -9 -232v-115q0 -136 -26 -230.5t-89 -159.5q-102 -103 -275 -103 q-153 0 -246 71q-136 101 -136 355v349q0 36 -1 57.5t-7 39.5t-12.5 26t-24.5 15t-35 9t-51 5z" />
<glyph unicode="V" horiz-adv-x="1069" d="M28 906v45h381v-44q-79 -9 -93 -25q-6 -7 -6 -19q0 -18 12 -46q132 -338 248 -625h2q161 389 233 600q14 37 14 60q0 16 -7 24q-17 20 -107 31v44h341v-44q-77 -8 -107.5 -34.5t-74.5 -126.5q-188 -437 -313 -762h-51q-104 276 -312 791q-33 80 -62 103t-98 28z" />
<glyph unicode="W" horiz-adv-x="1474" d="M23 907v44h379v-44q-82 -9 -96 -29q-6 -8 -6 -22q0 -20 12 -52q127 -421 182 -588h3q35 109 117 351.5t123 370.5h50q93 -266 263 -724h3q120 372 168 574q9 33 9 55q0 21 -8 33q-18 22 -105 31v44h335v-44q-76 -10 -102.5 -34.5t-60.5 -116.5q-75 -199 -250 -772h-53 q-184 509 -262 718h-3q-43 -130 -125.5 -369t-119.5 -349h-52q-57 189 -248 775q-28 89 -55 114.5t-98 33.5z" />
<glyph unicode="X" horiz-adv-x="1004" d="M10 0v42q65 8 106 27t73 58q80 92 249 343q-82 127 -203 312q-50 73 -84 95t-113 30v44h384v-44q-63 -8 -75 -22t7 -40q52 -84 169 -258q91 132 148 229q19 33 19 51q0 7 -4 13q-12 16 -86 27v44h351v-44q-83 -8 -121.5 -29t-89.5 -84q-41 -49 -185 -255 q159 -240 242 -361q51 -77 91 -103t119 -33v-42h-413v42q69 10 83 25t-8 50q-12 18 -76.5 118.5t-120.5 185.5q-115 -170 -182 -287q-21 -34 -21 -52q0 -8 4 -12q12 -16 88 -28v-42h-351z" />
<glyph unicode="Y" horiz-adv-x="966" d="M25 907v44h371v-44q-40 -5 -61 -11t-27 -17t-2.5 -21.5t14.5 -31.5q37 -66 113 -194t87 -148q131 228 178 329q16 32 16 51q0 11 -5 18q-15 17 -100 25v44h338v-44q-76 -8 -106.5 -29t-75.5 -90q-93 -138 -188 -312q-16 -29 -21 -47.5t-5 -48.5v-192q0 -51 3 -75 t20.5 -41t44 -21.5t83.5 -8.5v-42h-435v42q55 4 79.5 8.5t42 21t20.5 41t3 75.5v186q0 22 -6 37t-26 52q-114 197 -188 319q-45 76 -73 97.5t-94 27.5z" />
<glyph unicode="Z" horiz-adv-x="923" d="M44 23q559 765 635 871h-261q-82 0 -124 -5.5t-59 -16t-31 -32.5q-29 -41 -53 -131l-45 2q15 190 18 277h36q13 -25 28 -31t52 -6h618l12 -22q-431 -589 -624 -865q75 -9 241 -9q138 0 198 11.5t93 44.5q43 46 84 156l44 -9q-49 -237 -55 -258h-794z" />
<glyph unicode="[" horiz-adv-x="517" d="M179 -236v1261h257v-42q-44 -4 -68 -6.5t-45 -9.5t-29 -13.5t-14.5 -23.5t-7 -33t-0.5 -49v-906q0 -34 0.5 -49.5t6.5 -33t14 -23.5t29 -13.5t45.5 -10t68.5 -6.5v-42h-257z" />
<glyph unicode="\" horiz-adv-x="503" d="M54 973h86l313 -1037h-87z" />
<glyph unicode="]" horiz-adv-x="517" d="M82 -194q44 4 68 7t45 10.5t29 14t14.5 24t7 33t0.5 48.5v905q0 33 -0.5 48.5t-7 33t-14.5 24t-29 13.5t-45 9.5t-68 6.5v42h257v-1261h-257v42z" />
<glyph unicode="^" horiz-adv-x="822" d="M96 307l281 600h69l281 -600h-92l-226 501l-227 -501h-86z" />
<glyph unicode="_" horiz-adv-x="728" d="M0 -109h728v-73h-728v73z" />
<glyph unicode="`" horiz-adv-x="583" d="M141 948l6 15q12 7 58.5 15.5t62.5 4.5q8 -19 90 -247l-39 -21q-108 145 -178 233z" />
<glyph unicode="a" horiz-adv-x="661" d="M55 163q0 104 121 143q188 59 230 95v26q0 77 -32.5 119t-86.5 42q-39 0 -63 -26q-24 -24 -45 -99q-12 -36 -48 -36q-23 0 -45.5 20t-22.5 45q0 27 48 60q40 29 105.5 60.5t121.5 42.5q76 0 124 -37q71 -59 71 -185v-263q0 -45 15 -66t38 -21q25 0 53 16l15 -39l-131 -77 q-47 0 -76 29q-24 23 -36 62q-12 -7 -36 -23.5t-39 -25.5t-34.5 -20t-35 -16.5t-27.5 -5.5q-80 0 -132 54t-52 126zM195 185q0 -53 32 -82t70 -29q26 0 57.5 14t51.5 34v228q-49 -24 -121 -57q-46 -20 -68 -44.5t-22 -63.5z" />
<glyph unicode="b" horiz-adv-x="768" d="M10 954v35q123 16 227 51v-449l111 47q40 17 67 17q123 0 211 -89.5t88 -217.5q0 -157 -112 -261t-267 -104q-109 0 -227 52v808q0 70 -14.5 87t-83.5 24zM237 172q0 -30 9 -50q9 -28 43.5 -54.5t84.5 -26.5q90 0 143 70.5t53 197.5q0 122 -65 192t-158 70 q-56 0 -110 -25v-374z" />
<glyph unicode="c" horiz-adv-x="634" d="M54 288q0 172 151 284q57 42 119 62.5t110 20.5h2q89 0 134 -39q24 -19 24 -45q0 -24 -18.5 -45.5t-33.5 -21.5q-12 0 -29 17q-70 63 -152 63q-74 0 -125 -59.5t-51 -169.5q0 -71 23.5 -125.5t60 -83.5t73 -43t69.5 -14q49 0 90 17t89 62l25 -33q-51 -67 -121 -109.5 t-134 -42.5q-139 0 -222.5 91t-83.5 214z" />
<glyph unicode="d" horiz-adv-x="797" d="M55 294q0 150 116 255.5t273 105.5q48 0 96 -16v206q0 70 -17.5 85.5t-97.5 20.5v38q137 16 244 51v-867q0 -58 12.5 -73t58.5 -20l42 -4v-38q-169 -32 -242 -55v94l-88 -52q-73 -42 -114 -42q-48 0 -97 20.5t-91 57.5t-68.5 98.5t-26.5 134.5zM202 334 q0 -122 62.5 -188.5t140.5 -66.5q66 0 135 46v398q-54 76 -151 76q-27 0 -56.5 -12.5t-60 -40t-50.5 -82.5t-20 -130z" />
<glyph unicode="e" horiz-adv-x="638" d="M54 293q0 147 95 250q102 112 224 112h1q94 0 161 -68t67 -157q0 -21 -7.5 -32t-27.5 -15q-102 -15 -385 -25q2 -132 66.5 -200.5t150.5 -68.5q93 0 172 73l25 -32q-64 -80 -133 -113.5t-118 -33.5q-132 0 -211.5 91t-79.5 219zM189 421q158 0 241 3q35 1 35 28 q0 60 -35 104t-91 44h-1q-51 0 -92.5 -46t-56.5 -133z" />
<glyph unicode="f" horiz-adv-x="453" d="M38 594l42 44h70v33q0 67 16 118q30 99 118 172q78 69 166 79q77 -1 120 -50q14 -15 14 -32q0 -11 -6 -24q-9 -19 -30 -35q-24 -18 -43 3q-60 58 -122 58q-49 0 -76 -44q-29 -45 -29 -182v-35v-61h176q7 -9 2 -31.5t-18 -29.5h-160v-414q0 -79 19.5 -97.5t108.5 -27.5 v-38h-362v39q71 7 88.5 25t17.5 89v424h-105z" />
<glyph unicode="g" horiz-adv-x="708" d="M45 -198q0 50 39 84q7 7 120 97q-77 22 -111 80q-18 27 -18 52q0 7 1 13q85 31 132 88q-56 23 -93.5 75t-37.5 121q0 60 25.5 108.5t66 76.5t87 43t92.5 15h2q72 0 144 -37q87 5 208 20l7 -12q-9 -19 -29 -42.5t-38 -32.5l-84 4q42 -52 42 -128q0 -110 -79.5 -171.5 t-186.5 -61.5q-22 0 -78 7q-38 -26 -38 -55q0 -23 23.5 -40t70.5 -17q26 0 77.5 1.5t76.5 1.5q30 0 57.5 -4t57.5 -15.5t52 -30t36 -51t14 -74.5q0 -75 -52 -143t-140 -109.5t-185 -41.5q-119 0 -189 55t-72 124zM170 -160q0 -59 56 -100.5t141 -41.5q97 0 152 45t55 114 q0 78 -69 104q-47 17 -142 17h-2q-91 0 -128 -30q-63 -54 -63 -108zM216 436q0 -86 37 -140t97 -54q51 1 85 46t34 127q0 85 -36.5 139.5t-97.5 54.5h-1q-48 0 -83 -45.5t-35 -127.5z" />
<glyph unicode="h" horiz-adv-x="804" d="M26 0v39q68 7 85 25t17 89v695q0 69 -14 84t-85 22v35q117 17 227 51v-491q110 106 213 106q96 0 152 -62t56 -191v-249q0 -72 15.5 -89.5t80.5 -24.5v-39h-321v39q64 7 80 25.5t16 88.5v237q0 178 -142 178q-85 0 -150 -71v-344q0 -70 15 -88.5t79 -25.5v-39h-324z" />
<glyph unicode="i" horiz-adv-x="408" d="M47 0v39q71 7 87.5 25.5t16.5 94.5v294q0 69 -13.5 86t-79.5 28v35q134 22 222 56v-499q0 -75 16.5 -93.5t88.5 -26.5v-39h-338zM125 858q0 35 24 58.5t58 23.5q33 0 55.5 -23.5t22.5 -58.5q0 -32 -23 -55.5t-57 -23.5q-32 0 -56 24t-24 55z" />
<glyph unicode="j" horiz-adv-x="390" d="M-35 -310q0 30 31 36q81 14 109 51q25 35 35 108q10 93 10 288v274q0 41 -2 60t-14.5 32.5t-28.5 17.5t-54 10v35q124 17 229 56v-493q0 -139 -35 -236q-36 -98 -93 -179t-94 -110q-25 -17 -41 -17q-17 0 -34.5 20.5t-17.5 46.5zM125 858q0 35 23.5 58.5t56.5 23.5 q34 0 56.5 -23.5t22.5 -58.5q0 -32 -23 -55.5t-57 -23.5q-32 0 -55.5 23.5t-23.5 55.5z" />
<glyph unicode="k" horiz-adv-x="747" d="M19 0v39q74 8 91.5 26.5t17.5 88.5v688q0 71 -15.5 88t-83.5 24v35q86 9 226 51v-689q47 10 92 51q49 48 102 128q23 33 14.5 45.5t-58.5 18.5v40l312 13v-38q-76 -12 -114.5 -28.5t-81.5 -56.5q-42 -40 -125 -135q21 -31 105.5 -128t126.5 -142q73 -76 147 -80v-39 l-216 -3q-40 43 -130.5 155t-108.5 133q-25 30 -43 30q-7 1 -22 -2v-159q0 -71 17.5 -89t90.5 -26v-39h-344z" />
<glyph unicode="l" horiz-adv-x="385" d="M22 0v39q71 8 88.5 26.5t17.5 90.5v686q0 40 -2 58.5t-15.5 30.5t-29 15t-55.5 7v36q106 12 230 51v-884q0 -73 18 -91.5t92 -25.5v-39h-344z" />
<glyph unicode="m" horiz-adv-x="1232" d="M41 0v39q73 7 91.5 25t18.5 89v297q0 70 -13.5 87.5t-76.5 27.5v37q124 19 217 58v-120q10 6 46.5 32.5t62.5 42.5q67 40 123 40q54 0 98.5 -32t67.5 -88q27 20 122 83q59 37 112 37q90 0 142 -59.5t52 -168.5v-276q0 -71 15 -87.5t81 -24.5v-39h-326v39q65 7 82.5 26 t17.5 94v236q0 169 -128 169q-67 0 -158 -73q4 -36 4 -61v-281q0 -67 16.5 -85t78.5 -25v-39h-327v39q49 5 67.5 12.5t26.5 28.5t8 71v247q0 166 -126 166q-63 0 -156 -72v-341q0 -69 14 -87t67 -25v-39h-320z" />
<glyph unicode="n" horiz-adv-x="824" d="M44 0v39q75 9 91 26.5t16 90.5v294q0 70 -14 87t-74 28v37q120 19 217 58v-118q56 41 100 70q67 43 123 43q89 0 141 -60t52 -168v-273q0 -73 14.5 -90t80.5 -25v-39h-318v39q64 7 79.5 27t15.5 97v238q0 163 -132 163q-68 0 -156 -72v-338q0 -41 2 -59.5t13.5 -31.5 t27 -16.5t51.5 -7.5v-39h-330z" />
<glyph unicode="o" horiz-adv-x="772" d="M52 304q0 85 32.5 155t83.5 111t108.5 63t112.5 22h1q141 0 235.5 -95t94.5 -229q0 -85 -30 -153.5t-79 -109.5t-106 -63t-116 -22q-152 0 -244.5 96.5t-92.5 224.5zM205 354q0 -140 55.5 -230t144.5 -90q163 0 163 263q0 135 -52 222t-143 87h-2q-69 0 -117.5 -67 t-48.5 -185z" />
<glyph unicode="p" horiz-adv-x="792" d="M26 -312q73 7 91 25.5t18 88.5v660q0 68 -14.5 83.5t-82.5 24.5v36q95 15 226 64v-116l132 77q41 24 77 24q121 0 194 -81.5t73 -196.5q0 -154 -108 -259.5t-263 -134.5q-57 1 -105 24v-193q0 -80 19.5 -99t106.5 -27v-40h-364v40zM264 112q25 -25 64 -41t75 -16 q92 0 146.5 73.5t54.5 190.5q0 115 -57.5 180t-140.5 65q-61 0 -142 -60v-392z" />
<glyph unicode="q" horiz-adv-x="772" d="M55 288q0 102 57 187.5t149 132.5q90 47 192 47h4q62 -4 108 -18q25 -9 42 -8q21 0 56 16l6 -4q-5 -77 -5 -156v-679q0 -74 17 -91.5t97 -26.5v-40h-370v40q48 4 69.5 8t36.5 18t18 33.5t3 60.5v234l-153 -59q-80 0 -144.5 27.5t-103 72.5t-59 97.5t-20.5 107.5zM202 338 q0 -124 71 -197.5t158 -73.5q54 0 104 23v442q-25 29 -65.5 46.5t-76.5 17.5q-77 0 -134 -68t-57 -190z" />
<glyph unicode="r" horiz-adv-x="562" d="M48 0v39q69 7 86 25t17 89v303q0 69 -14 85.5t-77 25.5v33q121 20 220 60v-163h3q97 158 179 158q39 0 64.5 -23t25.5 -52q0 -55 -52 -79q-25 -10 -40 4q-33 30 -65 30q-29 0 -60.5 -32t-54.5 -89v-261q0 -73 18.5 -90t104.5 -24v-39h-355z" />
<glyph unicode="s" horiz-adv-x="548" d="M61 211l41 6q22 -79 71 -132t112 -53q42 0 72 28t30 71t-27.5 71.5t-87.5 55.5q-42 19 -67.5 33.5t-57.5 39t-48 58t-16 74.5q0 80 64 136t166 56q74 0 134 -26q9 -23 20.5 -76t13.5 -81l-40 -12q-23 68 -62 107.5t-92 39.5q-41 0 -66.5 -27t-25.5 -70q0 -73 123 -121 q94 -37 142 -83t48 -118q0 -97 -74.5 -151t-174.5 -54q-53 0 -102 15t-70 33q-7 14 -15.5 74.5t-10.5 105.5z" />
<glyph unicode="t" horiz-adv-x="463" d="M25 594l41 44h67v106l109 102l20 -4v-204h166q11 -12 8 -31.5t-18 -29.5h-156v-369q0 -138 88 -138q40 0 90 25l13 -40l-103 -52q-36 -20 -63 -20q-154 0 -154 174v420h-101z" />
<glyph unicode="u" horiz-adv-x="803" d="M44 587v35q11 0 112 10q35 4 112 16q-4 -45 -4 -212v-197q0 -85 36 -122.5t92 -37.5q84 0 153 65v337q0 58 -11.5 74.5t-49.5 22.5l-53 9v35q61 1 140 12q37 3 103 14v-482q0 -56 12.5 -71.5t57.5 -18.5l40 -2v-39q-44 -5 -117 -23q-9 -3 -112 -29l-10 8v104 q-89 -66 -105 -75q-68 -37 -118 -37q-84 0 -136 53.5t-52 165.5v279q0 57 -9.5 73t-40.5 23z" />
<glyph unicode="v" horiz-adv-x="693" d="M-6 599v39h319v-39q-59 -9 -69 -23.5t9 -61.5q80 -211 139 -348q64 148 129 339q10 28 10 47q0 12 -5 20q-13 18 -74 27v39h266v-39q-58 -8 -79.5 -26.5t-51.5 -83.5q-99 -207 -214 -505h-42q-76 190 -210 510q-26 60 -47 77.5t-80 27.5z" />
<glyph unicode="w" horiz-adv-x="1024" d="M12 599v39h317v-39q-67 -11 -79 -25q-5 -6 -5 -18q0 -17 10 -46q42 -138 106 -326h3q52 126 172 447h42q72 -188 179 -453h3q80 252 99 326q7 26 7 43q0 18 -8 26q-14 16 -85 26v39h271v-39q-55 -9 -75 -28t-44 -79q-16 -41 -182 -508h-44q-36 91 -101 247t-82 199 q-10 -26 -75.5 -190t-99.5 -256h-47q-71 227 -173 520q-20 56 -38.5 72t-70.5 23z" />
<glyph unicode="x" horiz-adv-x="708" d="M6 0v39q68 10 95.5 25.5t71.5 69.5q37 43 127 172l-131 199q-34 53 -59 69.5t-87 24.5v39h309v-39q-46 -7 -54 -19.5t13 -43.5l85 -130q70 107 84 133q19 33 10 43t-58 17v39h276v-39q-70 -8 -97 -21t-68 -57q-20 -22 -117 -155l149 -219q41 -61 69 -79.5t93 -28.5v-39 h-330v39q47 7 57.5 19t-7.5 41l-108 165q-55 -84 -93 -149q-23 -36 -14 -51.5t63 -24.5v-39h-279z" />
<glyph unicode="y" horiz-adv-x="688" d="M-1 599v39h314l2 -39q-52 -9 -62.5 -23.5t3.5 -54.5l134 -358q69 158 133 353q15 40 0 57t-76 26v39h271v-39q-59 -9 -80.5 -26.5t-51.5 -81.5q-16 -33 -39 -85.5t-66 -155t-83 -193.5q-124 -286 -158 -399q-9 -35 -46 -35q-33 0 -61 23t-28 52q0 28 38 54 q38 22 63.5 50.5t52.5 78.5q31 57 44 94q5 12 5 27q0 18 -8 39q-114 312 -173 451q-25 59 -47.5 78.5t-80.5 28.5z" />
<glyph unicode="z" horiz-adv-x="635" d="M44 23q179 259 370 563h-126q-78 0 -109 -20t-65 -85l-22 -43l-38 16q29 94 54 216h30q7 -18 25.5 -25t59.5 -7h349l11 -22q-199 -307 -360 -564h141q81 0 119.5 24.5t84.5 96.5l20 35l38 -19q-54 -153 -70 -189h-501z" />
<glyph unicode="{" horiz-adv-x="521" d="M95 373v44q47 4 76.5 16t41 33t14.5 36.5t3 40.5q0 49 -5 150.5t-5 145.5q0 195 221 195v-44q-76 -10 -101 -44.5t-25 -91.5q0 -46 9.5 -143t9.5 -144q0 -65 -30.5 -110.5t-95.5 -58.5v-6q65 -14 95.5 -59t30.5 -110q0 -49 -9.5 -144t-9.5 -139q0 -60 25 -95.5t101 -45.5 v-44q-221 0 -221 188q0 53 5 155.5t5 147.5q0 25 -3 41t-15 37t-41.5 33.5t-75.5 15.5z" />
<glyph unicode="|" horiz-adv-x="398" d="M149 -364v1456h100v-1456h-100z" />
<glyph unicode="}" horiz-adv-x="521" d="M80 -201q75 10 101.5 45t26.5 92q0 44 -9.5 140t-9.5 144q0 142 126 172v6q-65 14 -95.5 59.5t-30.5 109.5q0 47 9.5 145t9.5 144q0 57 -26.5 91t-101.5 43v44q34 0 60.5 -3t58.5 -14t53 -30.5t35.5 -55.5t14.5 -85q0 -55 -5.5 -155t-5.5 -142q0 -27 3 -43.5t15 -38.5 t41.5 -34.5t77.5 -15.5v-44q-47 -4 -76.5 -16.5t-41.5 -34.5t-15.5 -39t-3.5 -43q0 -41 5.5 -142t5.5 -156q0 -187 -222 -187v44z" />
<glyph unicode="~" horiz-adv-x="846" d="M79 288q65 161 192 161q70 0 169 -57q96 -56 148 -56q43 0 72 28t51 89l55 -32q-50 -162 -186 -162q-78 0 -185 66q-79 46 -130 46q-45 0 -76.5 -29t-55.5 -93z" />
<glyph unicode="&#xa1;" horiz-adv-x="417" d="M119 565q0 40 25 65t64 25h2q37 0 61.5 -25t24.5 -65q0 -39 -25 -64.5t-63 -25.5q-39 0 -64 25.5t-25 64.5zM122 -285q0 14 12 113q23 192 48 519q5 8 28 8t27 -8q5 -55 13.5 -168t16 -195t17.5 -156q12 -99 12 -113q0 -49 -86 -49h-2q-86 0 -86 49z" />
<glyph unicode="&#xa2;" d="M74 436q0 80 38 150t104 118q72 51 161 71v121h54v-115q12 1 26 1q93 0 150 -39q22 -14 22 -38q0 -23 -18.5 -44.5t-36.5 -21.5q-7 0 -22 15q-54 54 -121 64v-478q106 -4 198 85l25 -37q-45 -57 -105.5 -96t-117.5 -48v-143h-54v139q-133 4 -218 91.5t-85 204.5zM200 497 q0 -112 53.5 -174t123.5 -77v474q-68 -3 -122.5 -59.5t-54.5 -163.5z" />
<glyph unicode="&#xa3;" d="M41 12q-9 19 6 51q8 15 74 91q61 67 61 191q0 16 -0.5 31.5t-2 30t-1.5 20.5h-133v58h125q-8 78 -8 121q0 156 125 253q35 27 79.5 45.5t77.5 20.5q47 0 88.5 -19.5t55.5 -40.5q19 -22 6 -48q-12 -23 -30 -35q-20 -15 -43 3q-74 64 -139 64q-98 0 -98 -129q0 -69 32 -235 h255v-58h-249v-31q0 -131 -134 -245q63 2 159 -37q122 -56 180 -56q39 0 59.5 16.5t20.5 44.5q0 23 -11 49q-7 14 4 32q26 37 54 37q16 0 26 -18t10 -41q0 -47 -35 -94.5t-81 -76.5q-72 -46 -136 -46q-65 0 -203 78q-60 35 -89 35q-35 0 -60 -61q-5 -20 -18 -20 q-18 0 -27 19z" />
<glyph unicode="&#xa4;" d="M42 197l101 96q-63 73 -63 180q0 106 64 178l-102 99l61 61l97 -109q67 55 158 55h2q88 0 157 -53l95 107l64 -61l-102 -99q64 -70 64 -178q0 -107 -66 -179l104 -97l-64 -63l-96 109q-70 -55 -158 -55q-93 0 -158 55l-97 -109zM176 473q0 -93 52.5 -150.5t131.5 -57.5 q78 0 130 58t52 150t-52 149.5t-130 57.5h-2q-78 0 -130 -57.5t-52 -149.5z" />
<glyph unicode="&#xa5;" d="M9 868v39h317v-39l-38 -7q-30 -5 -37.5 -14t1.5 -31q8 -20 125 -299q31 60 72.5 147.5t55.5 127.5q14 30 8 45t-40 22l-40 9v39h269v-39q-56 -7 -79 -25.5t-58 -77.5q-47 -77 -147 -280h191v-54h-201v-42v-55h202v-54h-202v-112q0 -45 2.5 -65t18.5 -35t39.5 -19t74.5 -8 v-41h-396v41q93 7 113 26.5t20 100.5v112h-197v54h197v45v52h-197v54h179q-57 137 -124 274q-31 66 -53 84t-76 25z" />
<glyph unicode="&#xa6;" horiz-adv-x="398" d="M149 -255v510h100v-510h-100zM149 473v510h100v-510h-100z" />
<glyph unicode="&#xa7;" horiz-adv-x="711" d="M80 540q0 133 118 255q58 63 108 96.5t116 49.5q27 0 56 -10.5t45 -24.5q17 -17 17 -35q0 -25 -29 -51q-18 -9 -29 0q-14 13 -46.5 26t-68.5 13q-43 0 -66.5 -22.5t-25.5 -49.5q0 -51 56 -99q27 -24 85 -72.5t79 -66.5q67 -56 105 -115t37 -134q-3 -157 -148 -313 q-96 -105 -206 -136q-21 0 -53 8.5t-51 23.5q-28 24 -28 46q0 23 33 48q15 12 32 6q51 -43 118 -43q40 0 69.5 21.5t29.5 61.5q1 31 -20.5 63.5t-77.5 83.5q-21 21 -74 72.5t-75 73.5q-106 99 -106 224zM156 604q-1 -56 28 -109.5t97 -117.5q152 -135 188 -191 q14 -20 23 -53t8 -62l1 -1q57 79 58 163q0 113 -121 214q-157 143 -164 150q-68 64 -61 147l-5 2q-52 -72 -52 -139v-3z" />
<glyph unicode="&#xa8;" horiz-adv-x="583" d="M86 858q0 33 22.5 55t54.5 22t53 -22t21 -55q0 -31 -21.5 -53.5t-53.5 -22.5q-31 0 -53.5 22.5t-22.5 53.5zM345 858q0 33 22.5 55t54.5 22q31 0 53 -22t22 -55q0 -31 -22.5 -53.5t-53.5 -22.5t-53.5 22.5t-22.5 53.5z" />
<glyph unicode="&#xa9;" horiz-adv-x="1030" d="M73 470q0 187 126.5 316t316.5 129h1q189 0 315 -129t126 -316q0 -185 -126.5 -313.5t-315.5 -128.5t-316 128.5t-127 313.5zM143 472q0 -167 106 -280t267 -113t267 113t106 280q0 168 -105.5 280.5t-267.5 112.5h-2q-160 0 -265.5 -112.5t-105.5 -280.5zM268 466 q0 119 83 189t201 70q98 0 154 -26q5 -40 16 -129l-33 -8q-38 123 -144 123q-77 0 -121.5 -58t-44.5 -149q0 -96 48.5 -156.5t120.5 -60.5q57 0 93.5 30.5t63.5 91.5l33 -7q-31 -115 -37 -131q-87 -28 -155 -28q-133 0 -205.5 74.5t-72.5 174.5z" />
<glyph unicode="&#xaa;" horiz-adv-x="457" d="M47 504q0 65 74 90q121 41 153 63v14q0 35 -19.5 56.5t-52.5 21.5q-47 0 -69 -78q-7 -23 -32 -23q-17 0 -33 13t-16 31q0 21 31 41q76 50 147 62q134 0 134 -129v-156q0 -50 32 -50q16 0 35 9l10 -28l-96 -49q-53 4 -70 58q-87 -58 -113 -58q-48 0 -81.5 34.5t-33.5 77.5 zM146 521q0 -30 18.5 -46t43.5 -16q34 0 66 26v131q-10 -5 -41.5 -18.5t-43.5 -19.5q-43 -20 -43 -57z" />
<glyph unicode="&#xab;" horiz-adv-x="663" d="M73 322q114 118 236 271l35 -22l-137 -249l137 -246l-35 -24q-131 167 -236 270zM322 322q106 110 236 271l35 -22l-137 -249l137 -246l-35 -24q-130 164 -236 270z" />
<glyph unicode="&#xac;" horiz-adv-x="846" d="M76 462v77h696v-396h-89v319h-607z" />
<glyph unicode="&#xad;" horiz-adv-x="535" d="M83 287l20 84h350l-22 -84h-348z" />
<glyph unicode="&#xae;" horiz-adv-x="468" d="M45 773q0 77 55.5 133.5t134.5 56.5h1q80 0 134.5 -56t54.5 -134q0 -76 -55 -132.5t-135 -56.5q-81 0 -135.5 54.5t-54.5 134.5zM87 773q0 -66 42.5 -110t106.5 -44q63 0 105 44t42 110q0 65 -42.5 110.5t-104.5 45.5h-1q-64 0 -106 -45.5t-42 -110.5zM143 674v22 q20 2 24.5 5.5t4.5 23.5v99q0 20 -4.5 24t-23.5 6v21h101q71 0 71 -52q0 -35 -41 -50q19 -33 48 -67q11 -11 21 -16l-6 -17q-50 0 -71 31q-5 8 -10.5 16.5t-10 17.5t-6.5 12q-4 10 -19 10h-5v-35q0 -20 3.5 -23.5t22.5 -5.5v-22h-99zM216 782h11q19 0 26 6q16 10 16 31 q0 35 -36 35q-17 0 -17 -18v-54z" />
<glyph unicode="&#xaf;" horiz-adv-x="583" d="M125 800v86h334v-86h-334z" />
<glyph unicode="&#xb0;" horiz-adv-x="505" d="M47 772q0 88 60.5 144t145.5 56h2q84 0 144.5 -56t60.5 -144q0 -92 -60.5 -146t-146.5 -54t-146 54t-60 146zM137 772q0 -60 33 -98.5t85 -38.5t83.5 38t31.5 98q0 62 -31 99t-84 37h-2q-51 0 -83.5 -37t-32.5 -98z" />
<glyph unicode="&#xb1;" horiz-adv-x="846" d="M76 0v77h696v-77h-696zM76 450v77h304v276h89v-276h303v-77h-303v-293h-89v293h-304z" />
<glyph unicode="&#xb2;" horiz-adv-x="514" d="M61 590v35q252 186 252 303q0 52 -27.5 79t-69.5 27q-68 0 -127 -81l-26 27l48 66q25 31 64 49t81 18q69 0 118.5 -43t49.5 -116q0 -49 -35 -95.5t-124 -122.5l-74 -62v-4h134q44 0 63 11.5t40 54.5l34 -12q-26 -84 -37 -134h-364z" />
<glyph unicode="&#xb3;" horiz-adv-x="514" d="M70 654q9 24 29 36q14 12 31 -2q63 -51 113 -51q39 0 64 26t25 78q0 49 -32 74t-79 25q-27 0 -59 -10l-11 38q145 44 145 111q0 28 -20.5 46.5t-57.5 18.5q-31 0 -60.5 -21.5t-48.5 -49.5l-25 25l44 61q21 22 57 38t73 16h1q65 0 104.5 -33.5t39.5 -80.5q0 -37 -29 -58 q-31 -26 -65 -44v-3q61 -10 96.5 -42t35.5 -79t-30 -86.5t-72.5 -62t-82 -34.5t-65.5 -12q-31 0 -60.5 10t-44.5 22q-22 18 -16 44z" />
<glyph unicode="&#xb4;" horiz-adv-x="583" d="M242 738q52 124 96 234q10 6 61.5 11.5t65.5 2.5l5 -14l-190 -254z" />
<glyph unicode="&#xb5;" horiz-adv-x="773" d="M101 628l132 29q3 -27 3 -154v-248q0 -93 40 -134.5t94 -41.5q76 0 141 72v477l130 29v-487q0 -101 63 -103q25 0 51 15l14 -40q-20 -24 -57.5 -41.5t-76.5 -17.5q-47 0 -79.5 30.5t-39.5 82.5h-5q-101 -113 -195 -113q-79 0 -122 62h-5l-1 -23q-1 -82 18.5 -209 t36.5 -173l-19 -17q-25 2 -60.5 20.5t-55.5 37.5q-2 7 -3 33t-1 68v83t0.5 98t0.5 94v431q0 72 -4 140z" />
<glyph unicode="&#xb6;" horiz-adv-x="741" d="M71 465q0 70 28 132t74 105q48 41 109.5 66.5t115.5 25.5h295l6 -18l-45 -40l-131 -16v-691q0 -90 -24 -154t-78 -118q-32 -31 -74 -52t-57 -21q-61 0 -99 32q-25 22 -16 47q5 23 29 40q15 12 31 2q51 -35 96 -35q113 0 113 231v213l-99 -42q-8 -4 -26 -4q-34 0 -75.5 21 t-80.5 57t-65.5 94.5t-26.5 124.5z" />
<glyph unicode="&#xb7;" horiz-adv-x="344" d="M83 341q0 38 25.5 64t63.5 26t63.5 -26t25.5 -64q0 -40 -25 -65t-64 -25h-2q-37 0 -62 25t-25 65z" />
<glyph unicode="&#xb8;" horiz-adv-x="583" d="M204 -312q45 18 68.5 41.5t23.5 47.5q1 23 -35 55q-29 26 -33 45.5t18 49.5l57 73h60l-32 -38q-15 -20 -13.5 -31.5t20.5 -29.5q60 -59 60 -102q0 -48 -46.5 -87.5t-128.5 -62.5z" />
<glyph unicode="&#xb9;" horiz-adv-x="514" d="M112 1034v35q99 11 207 44v-399q0 -52 17 -66.5t79 -22.5v-35h-301v35q62 5 80.5 20.5t18.5 68.5v250q0 42 -9 53t-48 14z" />
<glyph unicode="&#xba;" horiz-adv-x="504" d="M38 588q1 96 69 151.5t146 55.5h2q90 0 150 -57.5t58 -138.5q0 -95 -64 -151t-146 -56q-98 0 -156.5 59t-58.5 137zM151 612q-1 -78 30.5 -128t77.5 -50q41 0 66.5 34.5t26.5 108.5q0 79 -29 127.5t-81 48.5h-2q-35 0 -62 -37t-27 -104z" />
<glyph unicode="&#xbb;" horiz-adv-x="664" d="M73 76l137 247l-137 247l35 23q125 -155 236 -270q-110 -112 -236 -271zM320 76l137 247l-137 247l34 23q130 -161 237 -270q-107 -107 -237 -271z" />
<glyph unicode="&#xbc;" horiz-adv-x="1142" d="M117 848v35q104 11 206 43v-399q0 -52 17 -66t80 -23v-35h-302v35q63 6 81 21.5t18 67.5v251q0 42 -9 52.5t-48 14.5zM250 -6l608 957l49 -33l-612 -960zM607 144v35q133 174 274 344h64v-322h86v-57h-86v-41q0 -40 15 -52.5t65 -15.5v-35h-272v35q60 5 76.5 16t16.5 52 v41h-239zM685 201h161v210h-3q-70 -86 -158 -210z" />
<glyph unicode="&#xbd;" horiz-adv-x="1145" d="M103 848v35q104 11 207 43v-399q0 -52 17 -66t79 -23v-35h-301v35q62 6 80.5 21.5t18.5 67.5v251q0 42 -9 52.5t-48 14.5zM224 -6l608 957l49 -33l-612 -960zM653 0v35q49 37 79 62t77 70t71.5 88.5t24.5 82.5q0 52 -27.5 79t-70.5 27q-68 0 -127 -81l-26 27l48 66 q54 67 146 67q68 0 117.5 -43t49.5 -116q0 -49 -35 -95.5t-124 -122.5l-74 -62v-4h134q44 0 63 11.5t41 54.5l33 -12q-30 -104 -36 -134h-364z" />
<glyph unicode="&#xbe;" horiz-adv-x="1145" d="M109 468q8 22 29 36q14 11 31 -3q65 -51 114 -51q39 0 63.5 26t24.5 79q0 49 -31.5 74t-78.5 25q-28 0 -60 -10l-10 38q69 21 106.5 47t37.5 63q0 28 -20 47t-57 19q-31 0 -61 -22t-48 -49l-25 24l44 62q19 21 55.5 37t73.5 16h2q64 0 104 -33t40 -80q0 -36 -29 -58 q-38 -31 -66 -44v-3q62 -10 97.5 -42t35.5 -79t-30 -86.5t-72.5 -62t-82.5 -34.5t-66 -12q-67 0 -105 32q-22 18 -16 44zM250 -6l608 957l49 -33l-612 -960zM597 144v35q133 174 274 344h64v-322h86v-57h-86v-41q0 -40 15 -52.5t65 -15.5v-35h-272v35q60 5 76.5 16t16.5 52 v41h-239zM674 201h162v210h-3q-65 -80 -159 -210z" />
<glyph unicode="&#xbf;" horiz-adv-x="571" d="M67 -96q0 77 74 134q8 7 44 32.5t58 43.5t42.5 45.5t20.5 51.5q0 31 -15 54.5t-49 54.5l26 35q56 -20 113 -74.5t57 -115.5q0 -40 -28.5 -78t-100.5 -90q-91 -64 -118 -94q-29 -33 -29 -60q0 -75 83 -75q33 0 65 13.5t51.5 29t36 29t22.5 13.5q20 0 43.5 -22t23.5 -49 q0 -28 -33 -57q-32 -28 -74 -42.5t-68 -14.5h-2q-94 0 -168.5 72.5t-74.5 163.5zM202 568q0 39 24.5 64t61.5 25h2q35 0 59.5 -25t24.5 -64q0 -37 -25 -62t-61 -25q-37 0 -61.5 25t-24.5 62z" />
<glyph unicode="&#xc0;" horiz-adv-x="1053" d="M31 0v42q54 8 78 19t45 40t48 96l314 763l52 13q202 -544 291 -776q36 -96 64 -121.5t102 -33.5v-42h-378v42q70 10 85.5 25.5t0.5 59.5q-37 101 -80 215h-321q-36 -96 -64 -182q-24 -67 -7.5 -88t100.5 -30v-42h-330zM315 1104q4 18 27.5 51.5t37.5 40.5 q77 -50 241 -157l-19 -38l-284 91zM357 408h274l-131 364h-3q-31 -77 -140 -364z" />
<glyph unicode="&#xc1;" horiz-adv-x="1053" d="M31 0v42q54 8 78 19t45 40t48 96l314 763l52 13q202 -544 291 -776q36 -96 64 -121.5t102 -33.5v-42h-378v42q70 10 85.5 25.5t0.5 59.5q-37 101 -80 215h-321q-36 -96 -64 -182q-24 -67 -7.5 -88t100.5 -30v-42h-330zM357 408h274l-131 364h-3q-31 -77 -140 -364z M465 1037q105 70 239 154q13 -1 36.5 -33.5t27.5 -51.5l-3 -14l-283 -91z" />
<glyph unicode="&#xc2;" horiz-adv-x="1053" d="M31 0v42q54 8 78 19t45 40t48 96l314 763l52 13q202 -544 291 -776q36 -96 64 -121.5t102 -33.5v-42h-378v42q70 10 85.5 25.5t0.5 59.5q-37 101 -80 215h-321q-36 -96 -64 -182q-24 -67 -7.5 -88t100.5 -30v-42h-330zM341 1039q136 105 188 160h33q56 -58 188 -160 l-22 -38q-80 32 -183 90q-126 -67 -181 -90zM357 408h274l-131 364h-3q-31 -77 -140 -364z" />
<glyph unicode="&#xc3;" horiz-adv-x="1053" d="M31 0v42q54 8 78 19t45 40t48 96l314 763l52 13q202 -544 291 -776q36 -96 64 -121.5t102 -33.5v-42h-378v42q70 10 85.5 25.5t0.5 59.5q-37 101 -80 215h-321q-36 -96 -64 -182q-24 -67 -7.5 -88t100.5 -30v-42h-330zM345 1033q49 122 123 122h1q33 0 90 -28 q53 -23 83 -23q22 0 38 15.5t32 47.5l37 -21q-40 -128 -124 -128q-36 0 -105 32q-48 21 -67 21q-38 0 -71 -66zM357 408h274l-131 364h-3q-31 -77 -140 -364z" />
<glyph unicode="&#xc4;" horiz-adv-x="1053" d="M31 0v42q54 8 78 19t45 40t48 96l314 763l52 13q202 -544 291 -776q36 -96 64 -121.5t102 -33.5v-42h-378v42q70 10 85.5 25.5t0.5 59.5q-37 101 -80 215h-321q-36 -96 -64 -182q-24 -67 -7.5 -88t100.5 -30v-42h-330zM320 1092q0 34 22.5 56.5t53.5 22.5h2 q31 0 52.5 -22.5t21.5 -56.5q0 -30 -22.5 -52t-53.5 -22t-53.5 22.5t-22.5 51.5zM357 408h274l-131 364h-3q-31 -77 -140 -364zM609 1094q0 33 22.5 55t53.5 22h1q31 0 52.5 -22t21.5 -55q0 -31 -22 -53.5t-53 -22.5t-53.5 22.5t-22.5 53.5z" />
<glyph unicode="&#xc5;" horiz-adv-x="1053" d="M31 0v42q54 8 78 19t45 40t48 96l314 763l52 13q202 -544 291 -776q36 -96 64 -121.5t102 -33.5v-42h-378v42q70 10 85.5 25.5t0.5 59.5q-37 101 -80 215h-321q-36 -96 -64 -182q-24 -67 -7.5 -88t100.5 -30v-42h-330zM357 408h274l-131 364h-3q-31 -77 -140 -364z M411 1132q0 55 39.5 89.5t91.5 34.5h1q51 0 91 -34.5t40 -89.5q0 -57 -40 -92t-92 -35t-91.5 35t-39.5 92zM476 1132q0 -35 18.5 -57.5t47.5 -22.5t46.5 22t17.5 58q0 33 -17.5 54.5t-46.5 21.5h-2q-27 0 -45.5 -22t-18.5 -54z" />
<glyph unicode="&#xc6;" horiz-adv-x="1312" d="M-17 0v42q74 10 106 32t74 94q76 130 357 654q24 42 16 57t-63 23l-62 7v42h782q0 -67 15 -213l-47 -5q-25 93 -50 122q-19 23 -51 32t-104 9h-120q-35 0 -43 -7t-8 -40v-357h128q101 0 127.5 18t40.5 96h46v-293h-46q-7 36 -13 54t-15.5 33.5t-28.5 21t-42.5 8 t-68.5 3.5h-128v-239q0 -57 8 -84t29 -39q32 -17 151 -17q76 0 119.5 11t68.5 40q44 49 77 144l44 -12q-24 -130 -54 -237h-718v44q41 3 64 7.5t40 12.5t24 27.5t9.5 43t2.5 67.5v231h-264q-92 -170 -140 -279q-29 -56 -14 -78.5t99 -33.5v-42h-348zM414 492h236v395 q-20 0 -43 -25q-153 -290 -193 -370z" />
<glyph unicode="&#xc7;" horiz-adv-x="1023" d="M68 460q0 150 74 267t208 181.5t305 64.5q46 0 95 -5.5t77 -11.5t64.5 -14.5t42.5 -9.5q18 -112 32 -234l-47 -9q-36 124 -105.5 175.5t-198.5 51.5q-171 0 -275 -119.5t-104 -302.5q0 -203 106 -330.5t284 -127.5q116 0 188.5 56t135.5 179l45 -18q-43 -152 -83 -234 q-155 -36 -262 -39l-15 -18q-15 -19 -13 -31.5t20 -31.5q59 -59 59 -101q0 -45 -47 -85.5t-128 -66.5l-21 44q92 39 92 87q0 26 -33 55q-28 27 -32.5 46t14.5 46l41 54q-105 4 -192.5 34t-147 77t-100.5 108.5t-60 127.5t-19 135z" />
<glyph unicode="&#xc8;" horiz-adv-x="859" d="M44 0v42q101 7 124.5 30.5t23.5 113.5v573q0 36 -1 57t-7 38.5t-12 25t-24.5 14t-34.5 8.5t-50 5v44h678q5 -91 14 -217l-46 -6q-17 72 -49 127q-16 24 -52 33t-114 9h-111q-36 0 -44 -7.5t-8 -40.5v-328h137q54 0 80 2.5t44.5 16.5t24.5 32.5t14 59.5h45v-287h-45 q-7 36 -13 53.5t-15 32.5t-28 20t-41.5 7t-65.5 2h-137v-269q0 -53 7.5 -80t28.5 -40q29 -17 153 -17q83 0 123 10t65 38q42 50 76 141l46 -6q-26 -143 -52 -237h-734zM221 1104q5 18 28.5 52t37.5 40q123 -79 240 -157l-19 -38l-284 91z" />
<glyph unicode="&#xc9;" horiz-adv-x="859" d="M44 0v42q101 7 124.5 30.5t23.5 113.5v573q0 36 -1 57t-7 38.5t-12 25t-24.5 14t-34.5 8.5t-50 5v44h678q5 -91 14 -217l-46 -6q-17 72 -49 127q-16 24 -52 33t-114 9h-111q-36 0 -44 -7.5t-8 -40.5v-328h137q54 0 80 2.5t44.5 16.5t24.5 32.5t14 59.5h45v-287h-45 q-7 36 -13 53.5t-15 32.5t-28 20t-41.5 7t-65.5 2h-137v-269q0 -53 7.5 -80t28.5 -40q29 -17 153 -17q83 0 123 10t65 38q42 50 76 141l46 -6q-26 -143 -52 -237h-734zM350 1037q82 55 238 154q14 -1 37.5 -33.5t27.5 -51.5l-3 -14l-283 -91z" />
<glyph unicode="&#xca;" horiz-adv-x="859" d="M44 0v42q101 7 124.5 30.5t23.5 113.5v573q0 36 -1 57t-7 38.5t-12 25t-24.5 14t-34.5 8.5t-50 5v44h678q5 -91 14 -217l-46 -6q-17 72 -49 127q-16 24 -52 33t-114 9h-111q-36 0 -44 -7.5t-8 -40.5v-328h137q54 0 80 2.5t44.5 16.5t24.5 32.5t14 59.5h45v-287h-45 q-7 36 -13 53.5t-15 32.5t-28 20t-41.5 7t-65.5 2h-137v-269q0 -53 7.5 -80t28.5 -40q29 -17 153 -17q83 0 123 10t65 38q42 50 76 141l46 -6q-26 -143 -52 -237h-734zM230 1039q130 99 188 160h34q55 -58 187 -160l-21 -38q-80 32 -184 90q-129 -69 -181 -90z" />
<glyph unicode="&#xcb;" horiz-adv-x="859" d="M44 0v42q101 7 124.5 30.5t23.5 113.5v573q0 36 -1 57t-7 38.5t-12 25t-24.5 14t-34.5 8.5t-50 5v44h678q5 -91 14 -217l-46 -6q-17 72 -49 127q-16 24 -52 33t-114 9h-111q-36 0 -44 -7.5t-8 -40.5v-328h137q54 0 80 2.5t44.5 16.5t24.5 32.5t14 59.5h45v-287h-45 q-7 36 -13 53.5t-15 32.5t-28 20t-41.5 7t-65.5 2h-137v-269q0 -53 7.5 -80t28.5 -40q29 -17 153 -17q83 0 123 10t65 38q42 50 76 141l46 -6q-26 -143 -52 -237h-734zM218 1097q0 33 22.5 55.5t53.5 22.5h2q30 0 52 -22.5t22 -55.5q0 -30 -22.5 -52t-53.5 -22t-53.5 22 t-22.5 52zM507 1098q0 33 22.5 55t53.5 22h1q31 0 52.5 -22t21.5 -55q0 -31 -22 -53t-53 -22t-53.5 22t-22.5 53z" />
<glyph unicode="&#xcc;" horiz-adv-x="523" d="M54 1104q5 18 28 52t37 40q164 -106 241 -157l-19 -38l-284 91zM57 0v42q51 4 73.5 8t39 20.5t19.5 40.5t3 75v577q0 51 -3 75.5t-19.5 40.5t-39 20.5t-73.5 7.5v44h408v-44q-34 -2 -52.5 -4.5t-36 -8.5t-24.5 -14t-13 -25t-7 -37.5t-1 -54.5v-577q0 -51 3 -75 t19.5 -40.5t39 -20.5t72.5 -8v-42h-408z" />
<glyph unicode="&#xcd;" horiz-adv-x="523" d="M57 0v42q51 4 73.5 8t39 20.5t19.5 40.5t3 75v577q0 51 -3 75.5t-19.5 40.5t-39 20.5t-73.5 7.5v44h408v-44q-34 -2 -52.5 -4.5t-36 -8.5t-24.5 -14t-13 -25t-7 -37.5t-1 -54.5v-577q0 -51 3 -75t19.5 -40.5t39 -20.5t72.5 -8v-42h-408zM175 1037q105 70 239 154 q14 -1 37 -33.5t27 -51.5l-3 -14l-283 -91z" />
<glyph unicode="&#xce;" horiz-adv-x="523" d="M57 0v42q51 4 73.5 8t39 20.5t19.5 40.5t3 75v577q0 51 -3 75.5t-19.5 40.5t-39 20.5t-73.5 7.5v44h408v-44q-34 -2 -52.5 -4.5t-36 -8.5t-24.5 -14t-13 -25t-7 -37.5t-1 -54.5v-577q0 -51 3 -75t19.5 -40.5t39 -20.5t72.5 -8v-42h-408zM57 1039q136 105 188 160h33 q58 -61 188 -160l-22 -38q-80 32 -183 90q-126 -67 -181 -90z" />
<glyph unicode="&#xcf;" horiz-adv-x="523" d="M42 1092q0 34 22.5 56.5t53.5 22.5h1q31 0 53 -22.5t22 -56.5q0 -30 -22.5 -52t-53.5 -22t-53.5 22.5t-22.5 51.5zM57 0v42q51 4 73.5 8t39 20.5t19.5 40.5t3 75v577q0 51 -3 75.5t-19.5 40.5t-39 20.5t-73.5 7.5v44h408v-44q-34 -2 -52.5 -4.5t-36 -8.5t-24.5 -14 t-13 -25t-7 -37.5t-1 -54.5v-577q0 -51 3 -75t19.5 -40.5t39 -20.5t72.5 -8v-42h-408zM331 1094q0 32 22.5 54.5t52.5 22.5h2q31 0 52.5 -22t21.5 -55q0 -31 -22 -53.5t-54 -22.5q-30 0 -52.5 22.5t-22.5 53.5z" />
<glyph unicode="&#xd0;" horiz-adv-x="1129" d="M58 466v64h150v217q0 105 -19.5 129.5t-106.5 30.5v44h434q281 0 418 -127q58 -55 93 -135t35 -176q0 -254 -191 -392q-165 -121 -443 -121h-360v42q52 4 77 9t41 24t19 45t3 82v264h-150zM348 194q0 -77 28 -107t119 -30q100 0 179.5 34.5t128 94t74 136.5t25.5 165 q0 240 -164 349q-91 63 -250 63q-94 0 -122 -16q-18 -10 -18 -66v-287h233v-64h-233v-272z" />
<glyph unicode="&#xd1;" horiz-adv-x="1133" d="M29 907v44h230l637 -722h4v341q0 139 -10 244q-5 51 -36.5 70t-112.5 23v44h357v-44q-65 -3 -93 -21t-33 -67q-9 -85 -9 -249v-585h-48l-657 762h-2l-1 -357q0 -141 10 -246q5 -56 35 -76t109 -26v-42h-358v42q67 5 96.5 25t34.5 73q12 92 12 250v314q0 77 -5.5 99.5 t-26.5 50.5q-23 27 -51.5 38t-81.5 15zM376 1033q25 65 57.5 93.5t64.5 28.5h2q31 0 90 -28q53 -23 83 -23q22 0 37.5 15t32.5 48l36 -21q-40 -128 -124 -128q-37 0 -104 32q-5 2 -16.5 7t-17 7.5t-15 4.5t-18.5 2q-37 0 -72 -66z" />
<glyph unicode="&#xd2;" horiz-adv-x="1158" d="M66 466q0 134 62 248.5t183.5 186.5t278.5 72h1q98 0 189 -35t160 -97t110.5 -154t41.5 -199q0 -154 -71.5 -271.5t-189 -178.5t-260.5 -61q-139 0 -254.5 63t-183 175.5t-67.5 250.5zM230 504q0 -202 106.5 -337t267.5 -135q64 0 121 26t102.5 76t72 131t26.5 184 q0 112 -29.5 202.5t-80.5 148t-116.5 88t-140.5 30.5h-1q-64 0 -122 -26.5t-104.5 -76t-74 -130.5t-27.5 -181zM380 1117q5 19 28 52.5t38 39.5q96 -62 240 -157l-19 -38l-284 92z" />
<glyph unicode="&#xd3;" horiz-adv-x="1158" d="M66 466q0 134 62 248.5t183.5 186.5t278.5 72h1q98 0 189 -35t160 -97t110.5 -154t41.5 -199q0 -154 -71.5 -271.5t-189 -178.5t-260.5 -61q-139 0 -254.5 63t-183 175.5t-67.5 250.5zM230 504q0 -202 106.5 -337t267.5 -135q64 0 121 26t102.5 76t72 131t26.5 184 q0 112 -29.5 202.5t-80.5 148t-116.5 88t-140.5 30.5h-1q-64 0 -122 -26.5t-104.5 -76t-74 -130.5t-27.5 -181zM475 1049q171 111 239 154q14 -2 37 -34t27 -52l-3 -13l-283 -92z" />
<glyph unicode="&#xd4;" horiz-adv-x="1158" d="M66 466q0 134 62 248.5t183.5 186.5t278.5 72h1q98 0 189 -35t160 -97t110.5 -154t41.5 -199q0 -154 -71.5 -271.5t-189 -178.5t-260.5 -61q-139 0 -254.5 63t-183 175.5t-67.5 250.5zM230 504q0 -202 106.5 -337t267.5 -135q64 0 121 26t102.5 76t72 131t26.5 184 q0 112 -29.5 202.5t-80.5 148t-116.5 88t-140.5 30.5h-1q-64 0 -122 -26.5t-104.5 -76t-74 -130.5t-27.5 -181zM373 1050q127 96 188 160h33q56 -58 188 -160l-22 -38q-82 35 -183 91q-127 -68 -181 -91z" />
<glyph unicode="&#xd5;" horiz-adv-x="1158" d="M66 466q0 134 62 248.5t183.5 186.5t278.5 72h1q98 0 189 -35t160 -97t110.5 -154t41.5 -199q0 -154 -71.5 -271.5t-189 -178.5t-260.5 -61q-139 0 -254.5 63t-183 175.5t-67.5 250.5zM230 504q0 -202 106.5 -337t267.5 -135q64 0 121 26t102.5 76t72 131t26.5 184 q0 112 -29.5 202.5t-80.5 148t-116.5 88t-140.5 30.5h-1q-64 0 -122 -26.5t-104.5 -76t-74 -130.5t-27.5 -181zM382 1046q25 65 57.5 93.5t64.5 28.5h1q32 0 91 -27q51 -24 83 -24q21 0 37 15.5t33 47.5l36 -21q-40 -128 -124 -128q-36 0 -105 32q-44 21 -67 21 q-36 0 -71 -66z" />
<glyph unicode="&#xd6;" horiz-adv-x="1158" d="M66 466q0 134 62 248.5t183.5 186.5t278.5 72h1q98 0 189 -35t160 -97t110.5 -154t41.5 -199q0 -154 -71.5 -271.5t-189 -178.5t-260.5 -61q-139 0 -254.5 63t-183 175.5t-67.5 250.5zM230 504q0 -202 106.5 -337t267.5 -135q64 0 121 26t102.5 76t72 131t26.5 184 q0 112 -29.5 202.5t-80.5 148t-116.5 88t-140.5 30.5h-1q-64 0 -122 -26.5t-104.5 -76t-74 -130.5t-27.5 -181zM358 1098q0 33 22.5 56t53.5 23h2q30 0 52 -23t22 -56q0 -30 -22.5 -52t-53.5 -22t-53.5 22.5t-22.5 51.5zM647 1100q0 32 22.5 54.5t52.5 22.5h2 q31 0 52.5 -22.5t21.5 -54.5q0 -31 -22 -53.5t-54 -22.5q-30 0 -52.5 22.5t-22.5 53.5z" />
<glyph unicode="&#xd7;" horiz-adv-x="846" d="M89 73l277 287l-277 284l55 58l280 -285l280 288l56 -58l-279 -287l279 -287l-56 -58l-280 285l-280 -285z" />
<glyph unicode="&#xd8;" horiz-adv-x="1162" d="M74 468q0 98 37.5 189t104.5 161t168 112.5t220 42.5q148 0 258 -68l78 109l45 -32l-76 -107q88 -69 141.5 -168.5t53.5 -217.5q0 -152 -71 -270t-190.5 -180t-264.5 -62q-149 0 -268 75l-90 -120l-39 36l83 115q-88 67 -139 166.5t-51 218.5zM236 501q0 -92 27.5 -176.5 t74.5 -142.5l465 641q-91 95 -233 95q-138 0 -236 -110t-98 -307zM373 138q43 -51 103.5 -78.5t127.5 -27.5q109 0 186.5 56.5t114.5 149.5t37 212q0 195 -104 331z" />
<glyph unicode="&#xd9;" horiz-adv-x="1119" d="M48 907v44h401v-44q-89 -5 -109.5 -28t-20.5 -124v-319q0 -181 73 -277t210 -96q285 0 285 413v112q0 167 -12 236q-6 42 -37 60t-108 23v44h361v-44q-66 -4 -96.5 -23.5t-34.5 -63.5q-9 -92 -9 -232v-115q0 -136 -26 -230.5t-89 -159.5q-102 -103 -275 -103 q-153 0 -246 71q-136 101 -136 355v349q0 36 -1 57.5t-7 39.5t-12.5 26t-24.5 15t-35 9t-51 5zM363 1104q5 18 28 52t37 40q77 -50 241 -157l-19 -38l-284 91z" />
<glyph unicode="&#xda;" horiz-adv-x="1119" d="M48 907v44h401v-44q-89 -5 -109.5 -28t-20.5 -124v-319q0 -181 73 -277t210 -96q285 0 285 413v112q0 167 -12 236q-6 42 -37 60t-108 23v44h361v-44q-66 -4 -96.5 -23.5t-34.5 -63.5q-9 -92 -9 -232v-115q0 -136 -26 -230.5t-89 -159.5q-102 -103 -275 -103 q-153 0 -246 71q-136 101 -136 355v349q0 36 -1 57.5t-7 39.5t-12.5 26t-24.5 15t-35 9t-51 5zM489 1037q140 92 239 154q14 -1 37.5 -33.5t26.5 -51.5l-3 -14l-282 -91z" />
<glyph unicode="&#xdb;" horiz-adv-x="1119" d="M48 907v44h401v-44q-89 -5 -109.5 -28t-20.5 -124v-319q0 -181 73 -277t210 -96q285 0 285 413v112q0 167 -12 236q-6 42 -37 60t-108 23v44h361v-44q-66 -4 -96.5 -23.5t-34.5 -63.5q-9 -92 -9 -232v-115q0 -136 -26 -230.5t-89 -159.5q-102 -103 -275 -103 q-153 0 -246 71q-136 101 -136 355v349q0 36 -1 57.5t-7 39.5t-12.5 26t-24.5 15t-35 9t-51 5zM376 1039q136 105 188 160h33q58 -61 188 -160l-22 -38q-80 32 -183 90q-126 -67 -181 -90z" />
<glyph unicode="&#xdc;" horiz-adv-x="1119" d="M48 907v44h401v-44q-89 -5 -109.5 -28t-20.5 -124v-319q0 -181 73 -277t210 -96q285 0 285 413v112q0 167 -12 236q-6 42 -37 60t-108 23v44h361v-44q-66 -4 -96.5 -23.5t-34.5 -63.5q-9 -92 -9 -232v-115q0 -136 -26 -230.5t-89 -159.5q-102 -103 -275 -103 q-153 0 -246 71q-136 101 -136 355v349q0 36 -1 57.5t-7 39.5t-12.5 26t-24.5 15t-35 9t-51 5zM354 1092q0 34 22.5 56.5t53.5 22.5h1q31 0 52.5 -22.5t21.5 -56.5q0 -30 -22 -52t-53 -22t-53.5 22.5t-22.5 51.5zM642 1094q0 33 22.5 55t53.5 22h2q30 0 52 -22t22 -55 q0 -31 -22.5 -53.5t-53.5 -22.5t-53.5 22.5t-22.5 53.5z" />
<glyph unicode="&#xdd;" horiz-adv-x="966" d="M25 907v44h371v-44q-40 -5 -61 -11t-27 -17t-2.5 -21.5t14.5 -31.5q37 -66 113 -194t87 -148q131 228 178 329q26 51 11 68.5t-100 25.5v44h338v-44q-76 -8 -106.5 -29t-75.5 -90q-93 -138 -188 -312q-16 -29 -21 -47.5t-5 -48.5v-192q0 -51 3 -75t20.5 -41t44 -21.5 t83.5 -8.5v-42h-435v42q55 4 79.5 8.5t42 21t20.5 41t3 75.5v186q0 22 -6 37t-26 52q-114 197 -188 319q-45 76 -73 97.5t-94 27.5zM420 1037q82 55 238 154q14 -1 37.5 -33.5t26.5 -51.5l-2 -14l-283 -91z" />
<glyph unicode="&#xde;" horiz-adv-x="833" d="M57 0v42q47 4 69.5 9t38 22t18.5 42t3 77v565q0 53 -2.5 78t-17 42.5t-35.5 22t-67 7.5v44h377v-44q-58 -4 -79.5 -14.5t-30 -41.5t-8.5 -110q66 3 130 3q323 0 323 -253q0 -126 -97.5 -198.5t-245.5 -74.5l-110 27v-63q0 -48 3.5 -71t20.5 -39t41.5 -21t77.5 -9v-42 h-409zM323 299q36 -18 97 -18q83 0 142.5 53t59.5 154t-54.5 152.5t-150.5 51.5q-59 0 -79 -15q-15 -9 -15 -45v-333z" />
<glyph unicode="&#xdf;" horiz-adv-x="823" d="M41 588l42 50h68v16q0 68 19 128q36 105 129 179q84 70 190 79q107 -2 172 -61.5t69 -161.5q0 -31 -15 -55q-151 -111 -151 -194q0 -26 16.5 -52.5t33.5 -42.5t52 -46q34 -29 55.5 -51t42.5 -62t21 -82q0 -68 -47 -128t-111 -91.5t-122 -31.5q-53 0 -83 19q-38 23 -30 52 q5 23 28 40q17 14 30 3q62 -47 115 -47q37 0 68 28.5t31 86.5q0 44 -23.5 79.5t-73.5 79.5q-124 103 -124 183q0 40 24 76.5t81 95.5q9 9 21.5 21t18 17t11.5 11.5t8 10.5q11 15 11 47q1 75 -50 133.5t-127 58.5q-42 0 -72 -22.5t-46.5 -57.5t-26.5 -90t-12.5 -105 t-2.5 -118v-430q0 -68 12.5 -86.5t64.5 -25.5v-41h-313v41q70 5 88 25t18 85v420h-103z" />
<glyph unicode="&#xe0;" horiz-adv-x="661" d="M55 163q0 104 121 143q188 59 230 95v26q0 77 -32.5 119t-86.5 42q-39 0 -63 -26q-24 -24 -45 -99q-12 -36 -48 -36q-23 0 -45.5 20t-22.5 45q0 27 48 60q40 29 105.5 60.5t121.5 42.5q76 0 124 -37q71 -59 71 -185v-263q0 -45 15 -66t38 -21q25 0 53 16l15 -39l-131 -77 q-47 0 -76 29q-24 23 -36 62q-12 -7 -36 -23.5t-39 -25.5t-34.5 -20t-35 -16.5t-27.5 -5.5q-80 0 -132 54t-52 126zM161 948l6 15q12 7 58.5 15.5t62.5 4.5q8 -19 90 -247l-39 -21q-108 145 -178 233zM195 185q0 -53 32 -82t70 -29q26 0 57.5 14t51.5 34v228 q-49 -24 -121 -57q-46 -20 -68 -44.5t-22 -63.5z" />
<glyph unicode="&#xe1;" horiz-adv-x="661" d="M55 163q0 104 121 143q188 59 230 95v26q0 77 -32.5 119t-86.5 42q-39 0 -63 -26q-24 -24 -45 -99q-12 -36 -48 -36q-23 0 -45.5 20t-22.5 45q0 27 48 60q40 29 105.5 60.5t121.5 42.5q76 0 124 -37q71 -59 71 -185v-263q0 -45 15 -66t38 -21q25 0 53 16l15 -39l-131 -77 q-47 0 -76 29q-24 23 -36 62q-12 -7 -36 -23.5t-39 -25.5t-34.5 -20t-35 -16.5t-27.5 -5.5q-80 0 -132 54t-52 126zM195 185q0 -53 32 -82t70 -29q26 0 57.5 14t51.5 34v228q-49 -24 -121 -57q-46 -20 -68 -44.5t-22 -63.5zM265 738q52 124 96 234q10 6 61.5 11.5t65.5 2.5 l5 -14l-190 -254z" />
<glyph unicode="&#xe2;" horiz-adv-x="661" d="M55 163q0 104 121 143q188 59 230 95v26q0 77 -32.5 119t-86.5 42q-39 0 -63 -26q-24 -24 -45 -99q-12 -36 -48 -36q-23 0 -45.5 20t-22.5 45q0 27 48 60q40 29 105.5 60.5t121.5 42.5q76 0 124 -37q71 -59 71 -185v-263q0 -45 15 -66t38 -21q25 0 53 16l15 -39l-131 -77 q-47 0 -76 29q-24 23 -36 62q-12 -7 -36 -23.5t-39 -25.5t-34.5 -20t-35 -16.5t-27.5 -5.5q-80 0 -132 54t-52 126zM142 741q77 104 153 241h40q82 -148 151 -241l-36 -24q-58 49 -136 138q-77 -90 -137 -138zM195 185q0 -53 32 -82t70 -29q26 0 57.5 14t51.5 34v228 q-49 -24 -121 -57q-46 -20 -68 -44.5t-22 -63.5z" />
<glyph unicode="&#xe3;" horiz-adv-x="661" d="M55 163q0 104 121 143q188 59 230 95v26q0 77 -32.5 119t-86.5 42q-39 0 -63 -26q-24 -24 -45 -99q-12 -36 -48 -36q-23 0 -45.5 20t-22.5 45q0 27 48 60q40 29 105.5 60.5t121.5 42.5q76 0 124 -37q71 -59 71 -185v-263q0 -45 15 -66t38 -21q25 0 53 16l15 -39l-131 -77 q-47 0 -76 29q-24 23 -36 62q-12 -7 -36 -23.5t-39 -25.5t-34.5 -20t-35 -16.5t-27.5 -5.5q-80 0 -132 54t-52 126zM122 782q23 72 55.5 105.5t68.5 33.5q29 0 87 -31q56 -28 81 -28q33 0 65 67l38 -20q-43 -137 -119 -137q-37 0 -100 33q-40 25 -69 25q-40 0 -69 -73z M195 185q0 -53 32 -82t70 -29q26 0 57.5 14t51.5 34v228q-49 -24 -121 -57q-46 -20 -68 -44.5t-22 -63.5z" />
<glyph unicode="&#xe4;" horiz-adv-x="661" d="M55 163q0 104 121 143q188 59 230 95v26q0 77 -32.5 119t-86.5 42q-39 0 -63 -26q-24 -24 -45 -99q-12 -36 -48 -36q-23 0 -45.5 20t-22.5 45q0 27 48 60q40 29 105.5 60.5t121.5 42.5q76 0 124 -37q71 -59 71 -185v-263q0 -45 15 -66t38 -21q25 0 53 16l15 -39l-131 -77 q-47 0 -76 29q-24 23 -36 62q-12 -7 -36 -23.5t-39 -25.5t-34.5 -20t-35 -16.5t-27.5 -5.5q-80 0 -132 54t-52 126zM109 858q0 33 22.5 55t54.5 22t53 -22t21 -55q0 -31 -21.5 -53.5t-53.5 -22.5q-31 0 -53.5 22.5t-22.5 53.5zM195 185q0 -53 32 -82t70 -29q26 0 57.5 14 t51.5 34v228q-49 -24 -121 -57q-46 -20 -68 -44.5t-22 -63.5zM368 858q0 33 22.5 55t54.5 22q31 0 53 -22t22 -55q0 -31 -22.5 -53.5t-53.5 -22.5t-53.5 22.5t-22.5 53.5z" />
<glyph unicode="&#xe5;" horiz-adv-x="661" d="M55 163q0 104 121 143q188 59 230 95v26q0 77 -32.5 119t-86.5 42q-39 0 -63 -26q-24 -24 -45 -99q-12 -36 -48 -36q-23 0 -45.5 20t-22.5 45q0 27 48 60q40 29 105.5 60.5t121.5 42.5q76 0 124 -37q71 -59 71 -185v-263q0 -45 15 -66t38 -21q25 0 53 16l15 -39l-131 -77 q-47 0 -76 29q-24 23 -36 62q-12 -7 -36 -23.5t-39 -25.5t-34.5 -20t-35 -16.5t-27.5 -5.5q-80 0 -132 54t-52 126zM184 855q0 55 40.5 89.5t93.5 34.5q51 0 91 -34.5t40 -89.5q0 -57 -40 -92t-93 -35q-52 0 -92 35t-40 92zM195 185q0 -53 32 -82t70 -29q26 0 57.5 14 t51.5 34v228q-49 -24 -121 -57q-46 -20 -68 -44.5t-22 -63.5zM252 855q0 -36 18 -58t48 -22t47.5 22t17.5 58q0 34 -17.5 55t-49.5 21q-28 0 -46 -21t-18 -55z" />
<glyph unicode="&#xe6;" horiz-adv-x="1002" d="M57 159q0 57 28 91t90 54q203 68 246 97v32q0 68 -38 111.5t-89 43.5q-43 0 -68 -30q-17 -20 -40 -95q-12 -39 -46 -39q-21 0 -46.5 21t-25.5 44q0 33 49 63q41 29 106.5 59.5t121.5 43.5q69 0 111 -32q41 -28 61 -77q44 49 102 79.5t115 31.5q96 0 164.5 -69t68.5 -157 q1 -24 -6.5 -34.5t-28.5 -14.5q-18 -5 -140 -13t-253 -12q-2 -131 65.5 -201t163.5 -70q84 0 166 73l24 -32q-40 -54 -92.5 -89t-89 -45t-65.5 -10q-79 0 -141 34.5t-98 93.5l-52 -40q-47 -35 -98.5 -61.5t-81.5 -26.5q-80 0 -131.5 54t-51.5 122zM195 189q0 -53 32.5 -82.5 t74.5 -29.5h1q36 0 76 18.5t70 58.5q-29 60 -29 196q-29 -15 -136 -59q-47 -19 -68 -42t-21 -60zM548 417q140 0 249 4q18 0 25.5 7t7.5 25q0 60 -34.5 103.5t-94.5 43.5h-2q-52 0 -96.5 -49t-54.5 -134z" />
<glyph unicode="&#xe7;" horiz-adv-x="631" d="M54 285q0 85 39 159t112 127q112 84 232 84q34 0 74.5 -10.5t60.5 -28.5q25 -19 22 -44q0 -22 -19 -43.5t-35 -21.5q-13 0 -27 16q-76 61 -156 61q-67 0 -119.5 -58t-52.5 -171q0 -73 23.5 -128t60 -84t72.5 -42.5t68 -13.5q51 0 90.5 17.5t90.5 63.5l26 -33 q-100 -124 -211 -147l-19 -26q-12 -18 -9.5 -29.5t21.5 -30.5q55 -55 55 -99q0 -46 -46 -86t-124 -64l-16 38q43 19 65.5 43.5t22.5 47.5q0 24 -33 55q-29 27 -33 44.5t15 44.5l46 57q-130 5 -213 90.5t-83 211.5z" />
<glyph unicode="&#xe8;" horiz-adv-x="638" d="M54 293q0 147 95 250q102 112 224 112h1q94 0 161 -68t67 -157q0 -21 -7.5 -32t-27.5 -15q-102 -15 -385 -25q2 -132 66.5 -200.5t150.5 -68.5q93 0 172 73l25 -32q-64 -80 -133 -113.5t-118 -33.5q-132 0 -211.5 91t-79.5 219zM180 948l6 15q12 7 58.5 15.5t62.5 4.5 q8 -19 90 -247l-39 -21q-108 145 -178 233zM189 421q158 0 241 3q35 1 35 28q0 60 -35 104t-91 44h-1q-51 0 -92.5 -46t-56.5 -133z" />
<glyph unicode="&#xe9;" horiz-adv-x="638" d="M54 293q0 147 95 250q102 112 224 112h1q94 0 161 -68t67 -157q0 -21 -7.5 -32t-27.5 -15q-102 -15 -385 -25q2 -132 66.5 -200.5t150.5 -68.5q93 0 172 73l25 -32q-64 -80 -133 -113.5t-118 -33.5q-132 0 -211.5 91t-79.5 219zM189 421q158 0 241 3q35 1 35 28 q0 60 -35 104t-91 44h-1q-51 0 -92.5 -46t-56.5 -133zM289 738q52 124 96 234q10 6 61.5 11.5t65.5 2.5l5 -14l-190 -254z" />
<glyph unicode="&#xea;" horiz-adv-x="638" d="M54 293q0 147 95 250q102 112 224 112h1q94 0 161 -68t67 -157q0 -21 -7.5 -32t-27.5 -15q-102 -15 -385 -25q2 -132 66.5 -200.5t150.5 -68.5q93 0 172 73l25 -32q-64 -80 -133 -113.5t-118 -33.5q-132 0 -211.5 91t-79.5 219zM167 741q77 104 153 241h40 q82 -148 151 -241l-36 -24q-58 49 -136 138q-77 -90 -137 -138zM189 421q158 0 241 3q35 1 35 28q0 60 -35 104t-91 44h-1q-51 0 -92.5 -46t-56.5 -133z" />
<glyph unicode="&#xeb;" horiz-adv-x="638" d="M54 293q0 147 95 250q102 112 224 112h1q94 0 161 -68t67 -157q0 -21 -7.5 -32t-27.5 -15q-102 -15 -385 -25q2 -132 66.5 -200.5t150.5 -68.5q93 0 172 73l25 -32q-64 -80 -133 -113.5t-118 -33.5q-132 0 -211.5 91t-79.5 219zM130 858q0 33 22.5 55t54.5 22t53 -22 t21 -55q0 -31 -21.5 -53.5t-53.5 -22.5q-31 0 -53.5 22.5t-22.5 53.5zM189 421q158 0 241 3q35 1 35 28q0 60 -35 104t-91 44h-1q-51 0 -92.5 -46t-56.5 -133zM389 858q0 33 22.5 55t54.5 22q31 0 53 -22t22 -55q0 -31 -22.5 -53.5t-53.5 -22.5t-53.5 22.5t-22.5 53.5z" />
<glyph unicode="&#xec;" horiz-adv-x="408" d="M38 948l6 15q12 7 58.5 15.5t62.5 4.5q8 -19 90 -247l-39 -21q-108 145 -178 233zM48 0v39q70 7 86.5 27t16.5 97v287q0 71 -14 89t-77 28v35q134 22 221 56v-495q0 -77 16.5 -96.5t87.5 -27.5v-39h-337z" />
<glyph unicode="&#xed;" horiz-adv-x="408" d="M48 0v39q70 7 86.5 27t16.5 97v287q0 71 -14 89t-77 28v35q134 22 221 56v-495q0 -77 16.5 -96.5t87.5 -27.5v-39h-337zM149 738q52 124 96 234q10 6 61.5 11.5t65.5 2.5l5 -14l-190 -254z" />
<glyph unicode="&#xee;" horiz-adv-x="408" d="M29 741q77 104 153 241h40q82 -148 151 -241l-36 -24q-58 49 -136 138q-77 -90 -137 -138zM48 0v39q70 7 86.5 27t16.5 97v287q0 71 -14 89t-77 28v35q134 22 221 56v-495q0 -77 16.5 -96.5t87.5 -27.5v-39h-337z" />
<glyph unicode="&#xef;" horiz-adv-x="408" d="M-6 858q0 33 22.5 55t54.5 22t53 -22t21 -55q0 -31 -21.5 -53.5t-53.5 -22.5q-31 0 -53.5 22.5t-22.5 53.5zM48 0v39q70 7 86.5 27t16.5 97v287q0 71 -14 89t-77 28v35q134 22 221 56v-495q0 -77 16.5 -96.5t87.5 -27.5v-39h-337zM253 858q0 33 22.5 55t54.5 22 q31 0 53 -22t22 -55q0 -31 -22.5 -53.5t-53.5 -22.5t-53.5 22.5t-22.5 53.5z" />
<glyph unicode="&#xf0;" horiz-adv-x="765" d="M54 306q0 84 32 152.5t82.5 110t108.5 64t115 22.5h1q70 0 133 -30q-26 116 -104 205l-221 -116l-23 48l207 106q-126 110 -266 127q-6 9 -3 24.5t14 20.5q84 -5 173 -37.5t162 -87.5l196 100l25 -49l-176 -89q199 -199 199 -487q0 -103 -28 -183t-75.5 -127.5 t-106.5 -72t-125 -24.5q-142 0 -232 99t-88 224zM205 347q0 -141 53 -226.5t143 -85.5q71 0 117 69t47 235q1 94 -9 139t-35 70q-56 58 -135 58h-1q-81 0 -130.5 -71t-49.5 -188z" />
<glyph unicode="&#xf1;" horiz-adv-x="824" d="M44 0v39q75 9 91 26.5t16 90.5v294q0 70 -14 87t-74 28v37q120 19 217 58v-118q56 41 100 70q67 43 123 43q89 0 141 -60t52 -168v-273q0 -73 14.5 -90t80.5 -25v-39h-318v39q64 7 79.5 27t15.5 97v238q0 163 -132 163q-68 0 -156 -72v-338q0 -41 2 -59.5t13.5 -31.5 t27 -16.5t51.5 -7.5v-39h-330zM211 782q23 72 55.5 105.5t68.5 33.5q29 0 87 -31q56 -28 81 -28q33 0 65 67l38 -20q-43 -137 -119 -137q-37 0 -100 33q-40 25 -69 25q-40 0 -69 -73z" />
<glyph unicode="&#xf2;" horiz-adv-x="772" d="M52 304q0 85 32.5 155t83.5 111t108.5 63t112.5 22h1q141 0 235.5 -95t94.5 -229q0 -85 -30 -153.5t-79 -109.5t-106 -63t-116 -22q-152 0 -244.5 96.5t-92.5 224.5zM205 354q0 -140 55.5 -230t144.5 -90q163 0 163 263q0 135 -52 222t-143 87h-2q-69 0 -117.5 -67 t-48.5 -185zM225 948l6 15q12 7 58.5 15.5t62.5 4.5q8 -19 90 -247l-39 -21q-108 145 -178 233z" />
<glyph unicode="&#xf3;" horiz-adv-x="772" d="M52 304q0 85 32.5 155t83.5 111t108.5 63t112.5 22h1q141 0 235.5 -95t94.5 -229q0 -85 -30 -153.5t-79 -109.5t-106 -63t-116 -22q-152 0 -244.5 96.5t-92.5 224.5zM205 354q0 -140 55.5 -230t144.5 -90q163 0 163 263q0 135 -52 222t-143 87h-2q-69 0 -117.5 -67 t-48.5 -185zM332 738q52 124 96 234q10 6 61.5 11.5t65.5 2.5l5 -14l-190 -254z" />
<glyph unicode="&#xf4;" horiz-adv-x="772" d="M52 304q0 85 32.5 155t83.5 111t108.5 63t112.5 22h1q141 0 235.5 -95t94.5 -229q0 -85 -30 -153.5t-79 -109.5t-106 -63t-116 -22q-152 0 -244.5 96.5t-92.5 224.5zM205 354q0 -140 55.5 -230t144.5 -90q163 0 163 263q0 135 -52 222t-143 87h-2q-69 0 -117.5 -67 t-48.5 -185zM214 741q77 104 153 241h40q82 -148 151 -241l-36 -24q-58 49 -136 138q-77 -90 -137 -138z" />
<glyph unicode="&#xf5;" horiz-adv-x="772" d="M52 304q0 85 32.5 155t83.5 111t108.5 63t112.5 22h1q141 0 235.5 -95t94.5 -229q0 -85 -30 -153.5t-79 -109.5t-106 -63t-116 -22q-152 0 -244.5 96.5t-92.5 224.5zM188 782q23 72 55.5 105.5t68.5 33.5q29 0 87 -31q56 -28 81 -28q33 0 65 67l38 -20 q-43 -137 -119 -137q-37 0 -100 33q-40 25 -69 25q-40 0 -69 -73zM205 354q0 -140 55.5 -230t144.5 -90q163 0 163 263q0 135 -52 222t-143 87h-2q-69 0 -117.5 -67t-48.5 -185z" />
<glyph unicode="&#xf6;" horiz-adv-x="772" d="M52 304q0 85 32.5 155t83.5 111t108.5 63t112.5 22h1q141 0 235.5 -95t94.5 -229q0 -85 -30 -153.5t-79 -109.5t-106 -63t-116 -22q-152 0 -244.5 96.5t-92.5 224.5zM181 858q0 33 22.5 55t54.5 22t53 -22t21 -55q0 -31 -21.5 -53.5t-53.5 -22.5q-31 0 -53.5 22.5 t-22.5 53.5zM205 354q0 -140 55.5 -230t144.5 -90q163 0 163 263q0 135 -52 222t-143 87h-2q-69 0 -117.5 -67t-48.5 -185zM440 858q0 33 22.5 55t54.5 22q31 0 53 -22t22 -55q0 -31 -22.5 -53.5t-53.5 -22.5t-53.5 22.5t-22.5 53.5z" />
<glyph unicode="&#xf7;" horiz-adv-x="846" d="M76 332v77h696v-77h-696zM350 150q0 31 21.5 52.5t53.5 21.5h2q27 0 50 -22t23 -52t-23.5 -53t-51.5 -23q-31 0 -53 22.5t-22 53.5zM352 591q0 30 23 52.5t52 22.5q31 0 53.5 -22.5t22.5 -52.5q0 -31 -22.5 -53t-53.5 -22h-2q-28 0 -50.5 22t-22.5 53z" />
<glyph unicode="&#xf8;" horiz-adv-x="778" d="M54 306q0 85 33 154t84.5 110t109.5 63t114 22q93 0 164 -43l56 76l39 -30l-52 -74q58 -45 90 -110.5t32 -141.5q0 -67 -19.5 -124.5t-52.5 -98t-76 -69.5t-89.5 -43t-94.5 -14q-97 0 -176 45l-59 -79l-38 34l56 74q-57 45 -89 111.5t-32 137.5zM197 341q0 -112 43 -190 l268 388q-22 30 -57.5 48.5t-73.5 18.5q-75 0 -127.5 -69t-52.5 -196zM272 108q48 -76 134 -76q74 0 124.5 68t50.5 212q0 105 -44 180z" />
<glyph unicode="&#xf9;" horiz-adv-x="803" d="M44 587v35q11 0 112 10q35 4 112 16q-4 -45 -4 -212v-197q0 -85 36 -122.5t92 -37.5q84 0 153 65v337q0 58 -11.5 74.5t-49.5 22.5l-53 9v35q61 1 140 12q37 3 103 14v-482q0 -56 12.5 -71.5t57.5 -18.5l40 -2v-39q-44 -5 -117 -23q-9 -3 -112 -29l-10 8v104 q-89 -66 -105 -75q-68 -37 -118 -37q-84 0 -136 53.5t-52 165.5v279q0 57 -9.5 73t-40.5 23zM225 948l6 15q12 7 58.5 15.5t62.5 4.5q8 -19 90 -247l-39 -21q-108 145 -178 233z" />
<glyph unicode="&#xfa;" horiz-adv-x="803" d="M44 587v35q11 0 112 10q35 4 112 16q-4 -45 -4 -212v-197q0 -85 36 -122.5t92 -37.5q84 0 153 65v337q0 58 -11.5 74.5t-49.5 22.5l-53 9v35q61 1 140 12q37 3 103 14v-482q0 -56 12.5 -71.5t57.5 -18.5l40 -2v-39q-44 -5 -117 -23q-9 -3 -112 -29l-10 8v104 q-89 -66 -105 -75q-68 -37 -118 -37q-84 0 -136 53.5t-52 165.5v279q0 57 -9.5 73t-40.5 23zM340 738q52 124 96 234q10 6 61.5 11.5t65.5 2.5l5 -14l-190 -254z" />
<glyph unicode="&#xfb;" horiz-adv-x="803" d="M44 587v35q11 0 112 10q35 4 112 16q-4 -45 -4 -212v-197q0 -85 36 -122.5t92 -37.5q84 0 153 65v337q0 58 -11.5 74.5t-49.5 22.5l-53 9v35q61 1 140 12q37 3 103 14v-482q0 -56 12.5 -71.5t57.5 -18.5l40 -2v-39q-44 -5 -117 -23q-9 -3 -112 -29l-10 8v104 q-89 -66 -105 -75q-68 -37 -118 -37q-84 0 -136 53.5t-52 165.5v279q0 57 -9.5 73t-40.5 23zM222 741q77 104 153 241h40q82 -148 151 -241l-36 -24q-58 49 -136 138q-77 -90 -137 -138z" />
<glyph unicode="&#xfc;" horiz-adv-x="803" d="M44 587v35q11 0 112 10q35 4 112 16q-4 -45 -4 -212v-197q0 -85 36 -122.5t92 -37.5q84 0 153 65v337q0 58 -11.5 74.5t-49.5 22.5l-53 9v35q61 1 140 12q37 3 103 14v-482q0 -56 12.5 -71.5t57.5 -18.5l40 -2v-39q-44 -5 -117 -23q-9 -3 -112 -29l-10 8v104 q-89 -66 -105 -75q-68 -37 -118 -37q-84 0 -136 53.5t-52 165.5v279q0 57 -9.5 73t-40.5 23zM184 858q0 33 22.5 55t54.5 22t53 -22t21 -55q0 -31 -21.5 -53.5t-53.5 -22.5q-31 0 -53.5 22.5t-22.5 53.5zM443 858q0 33 22.5 55t54.5 22q31 0 53 -22t22 -55 q0 -31 -22.5 -53.5t-53.5 -22.5t-53.5 22.5t-22.5 53.5z" />
<glyph unicode="&#xfd;" horiz-adv-x="688" d="M-1 599v39h314l2 -39q-52 -9 -62.5 -23.5t3.5 -54.5l134 -358q69 158 133 353q15 40 0 57t-76 26v39h271v-39q-59 -9 -80.5 -26.5t-51.5 -81.5q-16 -33 -39 -85.5t-66 -155t-83 -193.5q-124 -286 -158 -399q-9 -35 -46 -35q-33 0 -61 23t-28 52q0 28 38 54 q38 22 63.5 50.5t52.5 78.5q31 57 44 94q11 28 -3 66q-114 312 -173 451q-25 59 -47.5 78.5t-80.5 28.5zM329 738q52 124 96 234q10 6 61.5 11.5t65.5 2.5l5 -14l-190 -254z" />
<glyph unicode="&#xfe;" horiz-adv-x="776" d="M7 -312q71 6 89.5 24.5t18.5 93.5v1036q0 73 -15 89.5t-90 24.5v36q115 9 233 48v-479q102 54 163 83q25 11 54 11q81 0 142 -42t90.5 -104.5t29.5 -131.5q1 -155 -106.5 -260t-267.5 -134q-51 1 -105 27v-201q0 -76 21.5 -95.5t112.5 -25.5v-40h-370v40zM243 117 q24 -24 65 -42t78 -18q84 0 143 65.5t59 195.5q0 119 -58.5 183t-144.5 64q-58 0 -142 -54v-394z" />
<glyph unicode="&#xff;" horiz-adv-x="688" d="M-1 599v39h314l2 -39q-52 -9 -62.5 -23.5t3.5 -54.5l134 -358q69 158 133 353q15 40 0 57t-76 26v39h271v-39q-59 -9 -80.5 -26.5t-51.5 -81.5q-16 -33 -39 -85.5t-66 -155t-83 -193.5q-124 -286 -158 -399q-9 -35 -46 -35q-33 0 -61 23t-28 52q0 28 38 54 q38 22 63.5 50.5t52.5 78.5q31 57 44 94q11 28 -3 66q-114 312 -173 451q-25 59 -47.5 78.5t-80.5 28.5zM156 858q0 33 22.5 55t54.5 22t53 -22t21 -55q0 -31 -21.5 -53.5t-53.5 -22.5q-31 0 -53.5 22.5t-22.5 53.5zM415 858q0 33 22.5 55t54.5 22q31 0 53 -22t22 -55 q0 -31 -22.5 -53.5t-53.5 -22.5t-53.5 22.5t-22.5 53.5z" />
<glyph unicode="&#x152;" horiz-adv-x="1486" d="M67 463q0 223 165 363.5t418 140.5q52 0 144 -9q94 -7 147 -7h424q2 -80 14 -211l-46 -6q-21 84 -48 122q-17 23 -52 31.5t-114 8.5h-112q-35 0 -43 -7t-8 -38v-328h145q65 0 93 8.5t39.5 28.5t20.5 71h47v-284h-47q-11 56 -22.5 76.5t-38 28.5t-92.5 8h-145v-260 q0 -60 7.5 -87t28.5 -40q31 -19 153 -19q82 0 121 9.5t65 37.5q37 38 78 142l45 -6q-24 -137 -53 -237h-461q-94 0 -159 -6q-105 -11 -160 -11q-138 0 -246.5 40t-174 108t-99.5 152.5t-34 179.5zM233 482q0 -88 22.5 -165.5t69 -141.5t127 -101.5t186.5 -37.5q78 0 125 22 q31 15 42.5 36t11.5 66v637q0 39 -6 58t-23 29q-60 31 -151 31q-188 0 -296 -116.5t-108 -316.5z" />
<glyph unicode="&#x153;" horiz-adv-x="1161" d="M52 306q0 85 33 154.5t84 110.5t106.5 62.5t106.5 21.5h1q82 0 148.5 -38.5t106.5 -106.5q42 63 112 104t140 41q97 0 165 -67.5t68 -156.5q0 -25 -7 -35t-26 -14q-49 -13 -400 -25q-1 -132 66 -201.5t165 -69.5q78 0 167 73l23 -32q-57 -78 -125 -111t-118 -33 q-78 0 -142 33.5t-101 92.5q-46 -62 -112 -94t-133 -32q-99 0 -175.5 48t-114.5 121t-38 154zM205 350q-1 -138 53.5 -226.5t144.5 -89.5q69 0 115 65t47 203q0 135 -52.5 218.5t-142.5 83.5h-1q-68 0 -116 -68t-48 -186zM699 415q29 1 118 2t139 3q16 0 23 7.5t7 25.5 q2 62 -36 104.5t-96 42.5h-2q-52 0 -97 -49.5t-56 -135.5z" />
<glyph unicode="&#x178;" horiz-adv-x="966" d="M25 907v44h371v-44q-40 -5 -61 -11t-27 -17t-2.5 -21.5t14.5 -31.5q37 -66 113 -194t87 -148q131 228 178 329q26 51 11 68.5t-100 25.5v44h338v-44q-76 -8 -106.5 -29t-75.5 -90q-93 -138 -188 -312q-16 -29 -21 -47.5t-5 -48.5v-192q0 -51 3 -75t20.5 -41t44 -21.5 t83.5 -8.5v-42h-435v42q55 4 79.5 8.5t42 21t20.5 41t3 75.5v186q0 22 -6 37t-26 52q-114 197 -188 319q-45 76 -73 97.5t-94 27.5zM278 1092q0 34 22.5 56.5t53.5 22.5h1q31 0 53 -22.5t22 -56.5q0 -30 -22.5 -52t-53.5 -22t-53.5 22.5t-22.5 51.5zM567 1094 q0 32 22.5 54.5t52.5 22.5h2q31 0 52.5 -22t21.5 -55q0 -31 -22 -53.5t-54 -22.5q-30 0 -52.5 22.5t-22.5 53.5z" />
<glyph unicode="&#x2c6;" horiz-adv-x="583" d="M119 741q77 104 153 241h40q82 -148 151 -241l-36 -24q-58 49 -136 138q-77 -90 -137 -138z" />
<glyph unicode="&#x2dc;" horiz-adv-x="583" d="M93 782q23 72 55.5 105.5t68.5 33.5q29 0 87 -31q56 -28 81 -28q33 0 65 67l38 -20q-43 -137 -119 -137q-37 0 -100 33q-40 25 -69 25q-40 0 -69 -73z" />
<glyph unicode="&#x2000;" horiz-adv-x="682" />
<glyph unicode="&#x2001;" horiz-adv-x="1365" />
<glyph unicode="&#x2002;" horiz-adv-x="682" />
<glyph unicode="&#x2003;" horiz-adv-x="1365" />
<glyph unicode="&#x2004;" horiz-adv-x="455" />
<glyph unicode="&#x2005;" horiz-adv-x="341" />
<glyph unicode="&#x2006;" horiz-adv-x="227" />
<glyph unicode="&#x2007;" horiz-adv-x="227" />
<glyph unicode="&#x2008;" horiz-adv-x="170" />
<glyph unicode="&#x2009;" horiz-adv-x="273" />
<glyph unicode="&#x200a;" horiz-adv-x="75" />
<glyph unicode="&#x2010;" horiz-adv-x="535" d="M83 287l20 84h350l-22 -84h-348z" />
<glyph unicode="&#x2011;" horiz-adv-x="535" d="M83 287l20 84h350l-22 -84h-348z" />
<glyph unicode="&#x2012;" horiz-adv-x="535" d="M83 287l20 84h350l-22 -84h-348z" />
<glyph unicode="&#x2013;" horiz-adv-x="760" d="M73 290v80h615v-80h-615z" />
<glyph unicode="&#x2014;" horiz-adv-x="1350" d="M73 290v80h1204v-80h-1204z" />
<glyph unicode="&#x2018;" horiz-adv-x="339" d="M60 849q0 75 59 126.5t142 71.5l16 -40q-60 -24 -89 -53.5t-29 -72.5q0 -37 26 -61.5t67 -31.5q8 0 15 -9.5t7 -23.5q0 -28 -21.5 -43.5t-45.5 -15.5h-2q-53 0 -99 42.5t-46 110.5z" />
<glyph unicode="&#x2019;" horiz-adv-x="338" d="M63 727q116 48 116 127q0 37 -26.5 61t-68.5 29q-20 2 -20 35q0 27 21.5 42.5t45.5 15.5h2q53 0 98.5 -43t45.5 -111q0 -74 -58.5 -125t-141.5 -72z" />
<glyph unicode="&#x201a;" horiz-adv-x="361" d="M71 -131q61 27 92 57t31 73q0 37 -29 62t-72 32q-20 4 -20 34q0 28 22 44.5t46 16.5h2q56 0 104.5 -44t48.5 -115q0 -78 -62 -130.5t-150 -73.5z" />
<glyph unicode="&#x201c;" horiz-adv-x="606" d="M58 849q0 75 60 126.5t144 71.5l15 -40q-60 -25 -90 -54t-30 -72q0 -37 27.5 -61.5t68.5 -31.5q7 0 14 -9.5t7 -23.5q0 -27 -22 -43t-47 -16h-1q-54 0 -100 42.5t-46 110.5zM328 849q0 75 59 126.5t143 71.5l15 -40q-60 -25 -90 -54t-30 -72q0 -37 27.5 -61.5t68.5 -31.5 q7 0 14 -9.5t7 -23.5q0 -28 -21.5 -43.5t-45.5 -15.5h-2q-55 0 -100 42.5t-45 110.5z" />
<glyph unicode="&#x201d;" horiz-adv-x="612" d="M60 724q59 26 89 55.5t30 72.5q0 37 -27.5 62t-68.5 30q-19 2 -19 35q0 26 21.5 42t45.5 16h2q54 0 99.5 -43t45.5 -111q0 -75 -60 -127t-144 -73zM332 724q60 26 90 55.5t30 72.5q0 37 -28 62t-69 30q-7 1 -13 10.5t-6 24.5q0 26 22 42t45 16h2q54 0 100 -43t46 -111 q0 -75 -60.5 -127t-143.5 -73z" />
<glyph unicode="&#x201e;" horiz-adv-x="653" d="M70 -133q61 27 92.5 58t31.5 74q0 38 -29.5 63.5t-72.5 30.5q-19 4 -19 35q0 28 21.5 44.5t46.5 16.5h2q56 0 104.5 -44.5t48.5 -115.5q0 -78 -61.5 -130.5t-150.5 -74.5zM354 -133q62 27 93.5 58t31.5 74q0 37 -29.5 62.5t-72.5 31.5q-20 5 -20 35q0 28 22.5 44.5 t47.5 16.5h1q56 0 104.5 -44.5t48.5 -115.5q0 -78 -61.5 -130.5t-149.5 -74.5z" />
<glyph unicode="&#x2022;" horiz-adv-x="580" d="M95 318q0 83 57 141t139 58h2q79 0 135.5 -58.5t56.5 -140.5q0 -84 -56.5 -142.5t-137.5 -58.5q-82 0 -139 58t-57 143z" />
<glyph unicode="&#x2026;" horiz-adv-x="1457" d="M156 73q0 37 24.5 62t61.5 25q39 0 64 -25t25 -62q0 -41 -24.5 -65.5t-64.5 -24.5h-2q-37 0 -60.5 24.5t-23.5 65.5zM645 73q0 37 24.5 62t61.5 25q38 0 63 -25t25 -62q0 -41 -24.5 -65.5t-63.5 -24.5h-1q-37 0 -61 24.5t-24 65.5zM1127 73q0 37 25 62t63 25t62.5 -25 t24.5 -62q0 -41 -24 -65.5t-63 -24.5h-2q-38 0 -62 24.5t-24 65.5z" />
<glyph unicode="&#x202f;" horiz-adv-x="273" />
<glyph unicode="&#x2039;" horiz-adv-x="415" d="M71 322q112 114 236 271l35 -22l-137 -249l137 -246l-35 -24q-131 168 -236 270z" />
<glyph unicode="&#x203a;" horiz-adv-x="415" d="M71 76l139 247l-139 247l35 23q125 -155 236 -270q-110 -112 -236 -271z" />
<glyph unicode="&#x205f;" horiz-adv-x="341" />
<glyph unicode="&#x20ac;" d="M13 364l16 54h67q-2 45 3 95h-58l16 54h51q29 165 129.5 263t244.5 98q24 0 47.5 -2.5t44.5 -8t33.5 -9.5t30.5 -10.5t20 -7.5q9 -62 24 -176l-47 -10q-23 89 -58 130t-108 41q-85 0 -142.5 -81t-75.5 -227h399l-16 -54h-389q-4 -44 -2 -95h367l-16 -54h-345 q36 -329 213 -329q60 0 100.5 40t85.5 130l42 -13q-24 -107 -61 -173q-28 -12 -81.5 -24t-98.5 -12q-83 0 -147.5 30t-105 83t-64 120t-31.5 148h-88z" />
<glyph unicode="&#x2122;" horiz-adv-x="686" d="M38 856q1 19 3.5 47.5t2.5 36.5h19q2 -8 7 -8q3 -1 12 -1h158q12 0 19 9h18q0 -7 1 -36t2 -48h-22q-11 34 -18 38q-6 11 -35 11h-21v-142q0 -29 6 -35.5t34 -7.5v-24h-129v24q27 1 32.5 7.5t5.5 35.5v142h-19q-27 0 -37 -12q-7 -5 -16 -37h-23zM297 696v24q17 1 23.5 5 t8.5 15q7 16 10 61l5 57q2 31 -3.5 38t-34.5 9v26h100l70 -144l72 144h96v-26q-23 -2 -27.5 -8t-4.5 -32l1 -99q0 -31 5.5 -37.5t28.5 -8.5v-24h-120v24q25 1 29.5 7t4.5 33l1 130h-3l-86 -189h-20l-77 180h-3l-4 -84q-2 -19 -2 -57q3 -18 36 -20v-24h-106z" />
<glyph unicode="&#x25fc;" horiz-adv-x="640" d="M0 0v640h640v-640h-640z" />
<glyph unicode="&#xfb03;" horiz-adv-x="1209" d="M36 594l41 44h69v31q0 47 17 106q36 95 128 165q91 65 187 74q65 -2 111 -24.5t68 -54.5q53 50 113 77t113 29q108 -1 164 -71q24 -30 10 -57q-15 -26 -36 -39q-28 -22 -51 1q-1 1 -11.5 13.5t-14 16.5t-14.5 15.5t-18 16t-19.5 13t-23 12.5t-24.5 7t-28 3q-60 0 -97 -59 q-41 -59 -41 -212v-63h124q187 0 278 19v-511q0 -66 16 -82.5t86 -24.5v-39h-322v39q61 7 76.5 24t15.5 83v351q0 54 -12 67t-66 13h-196v-431q0 -66 16 -83t81 -24v-39h-319v39q63 7 77.5 23.5t14.5 84.5v430h-274v-426q0 -70 15.5 -87.5t82.5 -25.5v-38h-325v39 q67 7 82.5 24t15.5 88v426h-105zM275 638h274v41q0 53 15 103q12 41 27 69q-24 40 -67.5 69.5t-98.5 29.5q-73 0 -110 -67q-40 -72 -40 -203v-42z" />
<glyph unicode="&#xfb04;" horiz-adv-x="1213" d="M41 594l41 44h68v29q0 57 20 106q35 92 121 159q91 70 196 77q115 -3 176 -72q97 97 208 103q76 1 136 -36q22 9 65 35l13 -9v-884q0 -66 16.5 -83t88.5 -24v-39h-323v39q60 7 75 24t15 83v759q-18 30 -53.5 50.5t-76.5 20.5q-62 0 -100 -48q-44 -55 -44 -216v-74h173 q7 -9 2 -31.5t-18 -29.5h-155l-2 -430q0 -67 16 -84t82 -24v-39h-321v39q63 7 78.5 24.5t15.5 83.5v430h-274v-426q0 -69 15.5 -86.5t80.5 -25.5v-39h-325v39q66 7 82.5 25t16.5 87v426h-103zM280 638h274v31q0 68 16 120q3 12 27 66q-22 38 -65.5 63.5t-98.5 25.5 q-77 0 -117 -69q-36 -68 -36 -198v-39z" />
</font>
</defs>
</svg>
